<?xml version="1.0" standalone="no"?>
<!DOCTYPE svg PUBLIC "-//W3C//DTD SVG 20010904//EN"
 "http://www.w3.org/TR/2001/REC-SVG-20010904/DTD/svg10.dtd">
<svg version="1.0" xmlns="http://www.w3.org/2000/svg"
 width="668.000000pt" height="960.000000pt" viewBox="0 0 668.000000 960.000000"
 preserveAspectRatio="xMidYMid meet">
<metadata>
Created by potrace 1.15, written by Peter Selinger 2001-2017
</metadata>
<g transform="translate(0.000000,960.000000) scale(0.100000,-0.100000)"
fill="#000000" stroke="none">
<path d="M293 9568 c-5 -10 -6 -10 94 -8 83 1 83 1 74 -22 -6 -16 -16 -23 -35
-23 -15 -1 -30 3 -32 7 -3 4 -21 8 -40 8 -25 0 -33 4 -29 13 4 6 -2 1 -14 -13
-16 -20 -22 -23 -32 -12 -7 6 -17 12 -22 12 -4 0 -5 -6 -1 -12 6 -9 3 -9 -9 0
-10 8 -38 13 -69 12 -74 -2 -78 -2 -72 -12 3 -4 -2 -8 -10 -8 -9 0 -16 5 -16
10 0 15 -22 12 -47 -8 l-23 -17 38 0 c37 0 75 -21 66 -37 -9 -13 -24 -9 -24 7
0 20 -63 20 -80 0 -10 -11 -9 -18 4 -30 20 -21 21 -39 1 -31 -8 3 -15 1 -15
-4 0 -6 8 -10 18 -10 16 -1 16 -1 -1 -14 -16 -12 -13 -14 24 -14 23 -1 44 -3
47 -6 3 -3 -6 -6 -21 -6 -16 0 -27 -7 -30 -17 -4 -17 -5 -17 -6 0 -1 20 -16
23 -27 5 -4 -6 -2 -14 4 -16 7 -2 12 -12 12 -23 0 -13 7 -19 23 -20 18 -1 16
-3 -8 -9 -17 -4 -24 -8 -17 -9 16 -1 16 -58 -1 -68 -12 -8 -20 -43 -9 -43 2 0
11 8 18 18 12 15 13 14 4 -11 -6 -16 -7 -34 -3 -40 4 -6 0 -8 -10 -4 -10 3
-17 2 -17 -3 0 -9 17 -14 47 -13 7 1 10 -4 7 -9 -3 -5 -13 -7 -21 -4 -8 3 -20
3 -26 -1 -7 -5 5 -11 28 -14 l40 -6 -39 -2 c-33 -1 -37 -3 -26 -16 9 -10 9
-15 1 -15 -6 0 -11 -9 -11 -20 0 -11 6 -20 13 -20 8 0 7 -4 -3 -10 -12 -8 -13
-13 -2 -30 7 -12 8 -20 2 -20 -5 0 -10 -5 -10 -11 0 -6 9 -9 20 -6 27 7 25 -1
-2 -13 -21 -8 -19 -9 12 -10 l35 -2 -35 -11 -35 -11 50 -7 c54 -6 51 -10 -15
-17 -18 -2 -24 -42 -7 -43 7 0 3 -4 -8 -9 -19 -8 -19 -9 3 -9 13 -1 21 -5 17
-11 -3 -5 -12 -7 -20 -3 -8 3 -15 0 -15 -5 0 -6 10 -13 23 -15 22 -4 22 -4 0
-6 -15 -1 -21 -7 -20 -21 1 -15 9 -20 32 -21 30 -2 30 -2 -5 -9 -28 -5 -31 -8
-17 -14 10 -5 31 -6 47 -3 16 4 32 2 35 -3 4 -6 -16 -10 -47 -11 -29 -1 -45
-3 -36 -6 10 -2 18 -9 18 -15 0 -5 -7 -8 -15 -4 -8 3 -15 1 -15 -4 0 -6 6 -10
13 -10 7 0 13 -9 14 -20 1 -12 -4 -20 -14 -20 -13 0 -13 -3 -3 -15 7 -8 9 -15
4 -15 -5 0 -3 -4 4 -8 7 -5 10 -16 6 -26 -5 -14 -9 -15 -15 -4 -7 10 -9 9 -9
-4 0 -10 7 -18 15 -18 21 0 19 -18 -2 -23 -11 -3 -6 -6 12 -7 l30 -2 -30 -8
c-17 -4 -22 -8 -12 -9 21 -1 23 -21 2 -21 -21 0 -19 -31 3 -37 10 -2 19 -13
19 -25 2 -20 1 -20 -12 -2 -7 11 -17 16 -21 11 -4 -4 -2 -7 4 -7 7 0 12 -5 12
-11 0 -5 -4 -7 -10 -4 -5 3 -10 2 -10 -3 0 -5 10 -13 23 -17 l22 -8 -23 -4
c-20 -4 -20 -6 -7 -19 17 -17 20 -34 6 -34 -5 0 -12 8 -14 18 -3 11 -5 7 -6
-10 -1 -24 2 -26 27 -23 15 2 21 2 15 -1 -7 -3 -13 -14 -13 -25 0 -10 -5 -19
-11 -19 -6 0 -9 7 -5 15 3 8 1 15 -4 15 -6 0 -10 -9 -10 -20 0 -11 5 -20 11
-20 8 0 7 -5 -1 -15 -11 -13 -10 -15 6 -9 18 5 18 5 0 -10 -15 -12 -16 -16 -5
-16 8 0 10 -3 4 -8 -5 -4 -11 -21 -12 -39 -2 -23 2 -33 15 -36 16 -4 16 -5 0
-6 -20 -1 -25 -21 -5 -21 9 0 9 -2 -1 -9 -11 -7 -11 -9 2 -14 9 -4 16 -14 15
-24 0 -16 -1 -15 -9 2 -7 19 -8 19 -15 1 -5 -11 -3 -22 6 -28 11 -7 11 -11 2
-15 -7 -2 -13 -9 -13 -14 0 -6 4 -7 10 -4 6 3 7 -1 4 -9 -5 -12 2 -16 27 -17
34 -2 34 -2 -6 -9 -31 -6 -34 -7 -12 -9 15 0 27 -6 27 -12 0 -6 -8 -8 -19 -4
-22 7 -38 -10 -17 -18 8 -3 25 -4 38 -1 l23 5 -23 -10 c-12 -6 -29 -8 -37 -5
-8 4 -15 1 -15 -5 0 -6 8 -11 18 -12 9 0 12 -3 5 -5 -7 -3 -9 -12 -6 -20 3 -8
0 -14 -6 -14 -15 0 -14 -27 2 -34 9 -5 9 -7 0 -12 -18 -8 -16 -44 1 -44 8 0
17 -4 20 -9 4 -5 -4 -7 -16 -4 -19 4 -20 3 -8 -6 9 -7 11 -14 5 -18 -5 -5 -11
-20 -13 -35 -3 -27 5 -33 35 -29 6 1 14 -3 18 -9 3 -6 0 -7 -9 -4 -9 3 -16 1
-16 -5 0 -6 5 -11 11 -11 5 0 7 -5 3 -12 -5 -8 -11 -5 -17 10 -16 36 -25 25
-24 -28 1 -34 6 -50 15 -50 7 0 10 -5 7 -10 -4 -6 -11 -8 -16 -5 -5 4 -9 -3
-9 -14 0 -12 5 -21 11 -21 8 0 8 -5 -1 -15 -11 -13 -6 -15 31 -17 l44 -1 -45
-7 c-43 -6 -42 -13 5 -23 12 -3 7 -5 -12 -6 -36 -1 -41 -11 -17 -35 14 -15 14
-17 0 -22 -18 -7 -22 -35 -5 -32 6 2 14 -3 17 -11 2 -8 0 -11 -6 -7 -6 3 -13
2 -16 -3 -4 -5 6 -12 21 -14 l28 -4 -29 -2 c-28 -1 -29 -2 -10 -16 19 -14 19
-14 -1 -15 l-20 -1 20 -9 c17 -7 17 -9 3 -9 -31 -2 -19 -20 14 -24 l33 -4 -32
-1 c-40 -2 -44 -22 -5 -23 l27 -1 -25 -8 c-14 -4 -18 -8 -10 -9 16 -1 23 -41
8 -41 -4 0 -8 7 -8 15 0 8 -4 15 -10 15 -17 0 -11 -38 7 -49 17 -10 17 -10 1
-11 -10 0 -18 -7 -18 -15 0 -8 5 -15 11 -15 5 0 7 5 4 10 -3 6 1 10 11 10 14
0 15 -2 3 -17 -8 -10 -18 -21 -23 -24 -5 -4 -6 -14 -3 -23 8 -21 53 -21 61 0
3 8 10 12 16 9 16 -10 -21 -40 -45 -37 -29 4 -43 -28 -18 -42 16 -9 16 -10 -2
-17 -18 -7 -18 -8 -2 -8 10 -1 16 -5 13 -10 -10 -15 6 -43 20 -37 8 3 14 1 14
-5 0 -6 7 -8 16 -5 8 3 12 2 9 -4 -3 -6 -17 -7 -30 -4 -13 3 -30 2 -37 -3 -9
-5 0 -10 27 -14 l40 -6 -42 -2 c-24 0 -43 -6 -43 -12 0 -6 7 -9 15 -6 8 4 17
2 20 -3 3 -5 -5 -11 -17 -13 -17 -3 -15 -5 9 -6 17 0 35 -6 39 -12 4 -7 0 -9
-13 -5 -29 9 -53 -3 -53 -26 0 -10 4 -17 9 -13 5 3 12 1 15 -4 4 -5 -2 -12
-11 -14 -17 -4 -17 -5 0 -6 10 0 15 -6 12 -11 -4 -6 -11 -7 -17 -4 -7 4 -8 2
-4 -5 4 -6 23 -10 41 -9 19 1 37 -1 41 -5 4 -4 -14 -7 -39 -7 -27 0 -47 -5
-47 -11 0 -5 5 -7 12 -3 8 5 9 2 5 -9 -3 -10 -2 -17 3 -17 6 0 10 -4 10 -10 0
-5 -7 -7 -15 -4 -8 4 -15 1 -15 -5 0 -6 4 -11 9 -11 5 0 5 -15 1 -35 -5 -20
-4 -33 1 -29 5 3 9 -2 9 -10 0 -9 -4 -16 -10 -16 -5 0 -10 -10 -10 -22 0 -21
0 -21 22 -2 14 12 18 13 10 3 -6 -9 -9 -19 -5 -22 3 -4 -2 -9 -11 -13 -18 -7
-22 -34 -4 -34 9 0 9 -3 0 -12 -18 -18 -15 -49 3 -42 8 4 15 1 15 -5 0 -6 -6
-11 -13 -11 -27 0 -13 -30 17 -39 l31 -9 -32 -1 c-18 -1 -33 -6 -33 -12 0 -5
5 -7 12 -3 7 5 9 2 5 -9 -4 -12 2 -17 26 -20 31 -4 31 -4 -5 -5 -31 -2 -38 -6
-38 -22 0 -20 13 -25 54 -20 11 1 15 -3 12 -9 -4 -6 -20 -11 -35 -11 -38 0
-36 -28 3 -39 l31 -9 -32 -1 c-26 -1 -33 -5 -33 -21 0 -11 7 -20 15 -20 8 0
15 -6 15 -14 0 -8 6 -17 13 -19 6 -3 2 -6 -11 -6 -13 -1 -20 3 -17 9 3 6 1 10
-4 10 -6 0 -11 -7 -11 -15 0 -10 10 -15 28 -16 23 0 24 -2 8 -8 -15 -6 -16
-10 -7 -16 11 -6 11 -9 0 -16 -12 -8 -11 -11 1 -19 12 -8 11 -10 -7 -10 -13 0
-23 -4 -23 -10 0 -5 3 -9 8 -9 4 1 16 0 27 -1 15 -2 12 -4 -10 -10 l-30 -8 35
-2 35 -2 -33 -9 c-21 -6 -32 -16 -31 -27 0 -10 3 -12 6 -4 7 17 30 15 30 -3 0
-8 -4 -12 -8 -10 -3 3 -13 -3 -20 -12 -12 -14 -12 -16 2 -11 9 3 22 2 30 -3
11 -7 10 -9 -6 -9 -14 0 -20 -7 -21 -24 -1 -18 2 -22 17 -19 11 3 19 1 19 -5
0 -5 11 -13 25 -16 14 -4 25 -11 25 -17 0 -8 -5 -7 -15 1 -9 7 -18 10 -22 7
-3 -4 -11 1 -18 10 -15 20 -37 9 -28 -14 4 -11 3 -14 -5 -9 -7 4 -12 2 -12 -3
0 -6 11 -11 25 -11 18 0 25 -5 25 -19 0 -14 -5 -18 -19 -14 -10 3 -22 0 -25
-6 -5 -7 3 -11 18 -11 14 0 26 -5 26 -11 0 -7 -10 -9 -27 -5 l-28 6 25 -15
c25 -14 25 -14 3 -15 -30 0 -30 -28 0 -40 17 -7 18 -9 5 -9 -21 -1 -24 -17 -5
-24 6 -3 3 -6 -8 -7 -18 -1 -18 -2 5 -15 l25 -14 -23 -1 c-22 0 -22 -1 -7 -17
16 -16 16 -17 -1 -30 -17 -12 -16 -13 7 -14 17 -1 19 -3 6 -6 -20 -5 -23 -23
-4 -23 7 0 4 -7 -7 -15 -19 -14 -18 -15 10 -16 l29 -1 -30 -8 c-17 -4 -22 -8
-12 -9 10 -1 17 -9 17 -21 0 -12 -7 -20 -17 -21 -11 0 -13 -3 -5 -6 6 -2 12
-12 12 -21 0 -15 2 -15 10 -2 8 13 10 12 10 -2 0 -10 -4 -18 -10 -18 -5 0 -10
-4 -10 -10 0 -5 3 -9 8 -9 4 1 23 0 42 -1 24 -2 28 -4 13 -7 -12 -2 -24 -12
-26 -21 -4 -15 -5 -15 -6 1 -1 23 -45 20 -47 -3 0 -9 1 -10 3 -2 5 15 19 16
28 2 3 -5 0 -10 -7 -10 -9 0 -9 -3 2 -10 15 -9 13 -11 -12 -14 -7 0 -14 -9
-16 -18 -3 -18 11 -22 71 -21 9 0 17 -4 17 -9 0 -5 -15 -8 -32 -7 -24 3 -32 0
-30 -10 2 -8 -3 -18 -10 -22 -10 -7 -8 -9 5 -9 10 0 15 -4 12 -10 -3 -6 -1
-10 5 -10 7 0 10 -7 6 -15 -3 -10 1 -15 12 -16 9 -1 1 -4 -18 -8 -22 -4 -36
-12 -38 -23 -3 -14 4 -18 35 -20 38 -1 38 -1 5 -5 -32 -4 -52 -26 -37 -41 3
-4 34 -10 68 -13 l62 -6 -69 -1 c-58 -2 -67 -4 -62 -18 3 -9 6 -18 6 -20 0 -2
7 -4 15 -4 9 0 12 -6 9 -15 -5 -11 2 -15 27 -16 31 -2 31 -2 7 -6 -16 -2 -28
-10 -28 -16 -1 -7 -7 -1 -14 12 -9 17 -15 20 -21 11 -4 -7 -2 -16 6 -22 11 -7
11 -11 2 -15 -15 -6 -17 -33 -3 -33 6 0 10 -6 10 -14 0 -8 10 -17 23 -19 19
-4 19 -4 -5 -6 -14 0 -29 5 -31 12 -4 7 -6 6 -6 -5 -1 -9 5 -18 12 -21 9 -3 9
-7 -1 -20 -19 -22 -7 -37 31 -38 18 -1 24 -3 14 -6 -11 -3 -16 -11 -13 -19 3
-8 0 -14 -7 -14 -7 0 -18 -13 -24 -30 -7 -20 -8 -30 -1 -30 6 0 8 -7 4 -15 -3
-9 0 -15 9 -15 8 0 15 -5 15 -11 0 -6 -9 -8 -22 -3 -21 6 -21 6 -5 -11 13 -13
21 -14 31 -6 10 8 16 8 25 -3 10 -12 8 -14 -11 -9 -22 4 -22 4 -4 -11 19 -16
19 -16 -3 -16 -13 0 -20 4 -15 11 4 7 -1 10 -11 7 -26 -5 -31 -28 -6 -28 18 0
19 -3 9 -32 -6 -18 -15 -38 -20 -45 -12 -15 -2 -33 20 -34 12 0 11 -3 -6 -9
-12 -5 -21 -17 -21 -27 1 -17 2 -17 6 0 7 27 21 20 15 -8 -2 -14 -8 -25 -13
-25 -19 0 -8 -28 13 -35 l23 -8 -23 -4 c-36 -7 -23 -37 18 -44 l35 -6 -37 -2
c-30 -1 -38 -5 -38 -20 0 -12 8 -21 22 -24 l23 -4 -22 -2 c-17 -1 -23 -7 -22
-23 0 -21 1 -21 8 -4 11 29 18 6 10 -34 -3 -19 -7 -26 -8 -16 0 11 -4 17 -7
13 -11 -11 19 -65 33 -60 7 3 13 0 13 -6 0 -15 -37 -14 -43 2 -3 7 -6 5 -6 -5
-1 -14 8 -18 42 -20 37 -1 38 -2 9 -5 -47 -6 -29 -23 26 -24 26 0 40 -3 32 -6
-46 -15 -46 -15 -25 -24 l20 -9 -20 3 c-11 2 -19 9 -18 15 2 7 -9 12 -26 12
-16 0 -32 6 -34 13 -4 9 -6 9 -6 0 -1 -6 9 -19 21 -27 18 -13 19 -16 6 -16
-22 0 -33 -19 -19 -33 8 -8 11 -6 11 6 0 11 8 17 25 17 14 0 25 -4 25 -9 0 -5
-9 -7 -20 -4 -22 6 -28 -12 -7 -20 6 -3 0 -6 -15 -6 -21 -1 -28 -6 -28 -21 0
-13 6 -20 18 -19 10 0 12 3 5 6 -7 2 -13 9 -13 15 0 7 4 7 13 -1 8 -6 17 -7
23 -1 6 6 15 5 24 -1 12 -9 12 -10 -3 -5 -14 4 -21 -2 -29 -24 -5 -17 -14 -30
-20 -30 -5 0 -6 4 -3 10 3 5 1 10 -4 10 -6 0 -11 -7 -11 -15 0 -14 12 -19 32
-16 16 2 7 -18 -10 -22 -9 -3 1 -6 23 -7 25 -2 32 -4 18 -7 -13 -2 -23 -11
-23 -19 0 -8 -9 -14 -20 -14 -11 0 -20 -4 -20 -9 0 -4 16 -7 35 -5 19 1 38 -2
41 -8 3 -5 0 -9 -7 -7 -8 1 -27 1 -44 0 -24 -1 -27 -3 -15 -12 11 -8 12 -12 2
-16 -18 -7 -14 -31 7 -38 13 -4 17 -12 14 -25 -3 -11 -10 -20 -15 -20 -6 0 -8
7 -4 15 3 8 1 15 -4 15 -6 0 -10 -9 -10 -20 0 -23 28 -27 36 -5 4 8 11 15 17
15 6 0 7 -3 4 -7 -4 -3 -2 -12 4 -20 9 -10 6 -13 -17 -14 -17 -1 -22 -3 -12
-6 10 -2 18 -9 18 -13 0 -6 -11 -6 -25 0 -16 6 -25 6 -25 0 0 -6 4 -10 9 -10
5 0 11 -9 14 -20 4 -16 16 -20 73 -23 l69 -3 -77 -2 c-53 -1 -78 2 -81 11 -3
7 -6 5 -6 -5 -1 -20 3 -21 69 -18 25 1 42 -1 39 -4 -5 -6 -55 -14 -91 -15 -11
-1 -18 -8 -17 -18 0 -11 3 -13 6 -5 6 16 38 15 53 -2 6 -8 26 -17 43 -19 l32
-4 -34 -1 c-22 -1 -38 4 -47 16 -10 14 -15 15 -25 5 -11 -11 -10 -13 4 -13 9
0 17 -4 17 -9 0 -5 -8 -7 -19 -4 -10 3 -22 0 -25 -6 -4 -7 -1 -8 8 -5 9 3 16
2 16 -4 0 -6 -5 -12 -12 -14 -21 -7 0 -41 22 -35 11 3 20 1 20 -4 0 -5 -7 -9
-16 -9 -9 0 -12 -5 -8 -12 4 -7 -3 -4 -17 7 -13 11 -18 13 -11 5 6 -8 12 -23
12 -35 0 -16 -2 -17 -10 -5 -8 13 -10 12 -10 -2 0 -10 7 -18 15 -18 8 0 15 5
15 10 0 6 4 10 9 10 5 0 7 -9 4 -20 -3 -11 -13 -20 -23 -20 -16 0 -18 -9 -16
-73 1 -40 6 -78 10 -85 11 -18 34 -15 39 6 4 16 5 16 6 0 0 -10 6 -18 11 -18
6 0 10 -6 10 -14 0 -8 6 -17 13 -20 6 -3 -7 -5 -31 -3 -23 1 -42 2 -42 0 0 -1
4 -13 10 -27 6 -16 6 -26 0 -26 -5 0 -7 -7 -4 -15 4 -8 2 -15 -4 -15 -6 0 -13
6 -15 13 -3 7 -6 5 -6 -5 -1 -14 7 -18 34 -18 19 0 35 -4 35 -10 0 -5 -7 -7
-16 -3 -10 4 -17 -1 -21 -16 -3 -11 -10 -21 -15 -21 -6 0 -8 9 -5 20 3 11 1
18 -3 15 -12 -7 -7 -88 6 -92 6 -2 19 6 29 17 16 18 16 20 2 20 -10 0 -17 -7
-17 -15 0 -8 -4 -15 -10 -15 -14 0 -13 13 2 28 17 17 48 15 48 -3 0 -8 -4 -15
-10 -15 -5 0 -10 -7 -10 -15 0 -8 -7 -15 -16 -15 -13 0 -14 -3 -5 -14 10 -11
8 -15 -6 -19 -16 -4 -16 -5 -1 -6 11 -1 15 -6 12 -16 -4 -8 -1 -15 5 -15 6 0
11 -5 11 -10 0 -16 -34 -7 -41 10 -4 8 -6 -2 -6 -22 1 -28 3 -33 11 -22 6 8
29 17 51 19 25 4 36 2 30 -4 -6 -5 -23 -11 -40 -14 -26 -3 -24 -4 10 -6 30 -1
36 -4 25 -11 -8 -5 -28 -7 -45 -4 -23 4 -27 2 -18 -7 9 -9 9 -17 1 -33 -8 -14
-8 -21 0 -24 6 -2 8 -11 5 -19 -5 -13 -2 -15 13 -10 18 7 18 6 1 -7 -12 -9
-14 -16 -8 -21 18 -11 12 -35 -9 -35 -11 0 -20 4 -20 10 0 5 7 7 16 3 15 -5
15 -3 -1 20 -9 14 -14 31 -10 37 3 5 2 10 -4 10 -6 0 -9 -20 -8 -46 2 -43 4
-47 29 -50 19 -2 28 2 28 12 0 10 12 14 48 12 l47 -1 -43 -4 c-41 -4 -54 -16
-29 -27 8 -4 7 -5 -3 -5 -59 4 -80 -2 -80 -21 0 -16 7 -20 33 -21 17 -1 24 -3
14 -6 -21 -6 -22 -21 0 -45 15 -17 15 -18 0 -18 -10 0 -17 7 -17 15 0 8 -7 15
-15 15 -31 0 8 -40 40 -41 l30 -2 -28 -4 c-23 -4 -26 -7 -16 -19 9 -11 9 -14
-1 -14 -10 0 -10 -3 0 -15 11 -13 8 -15 -16 -16 -16 0 -23 -3 -16 -6 6 -2 10
-9 6 -14 -3 -5 0 -9 5 -9 18 0 26 5 23 13 -1 4 1 7 6 7 4 0 13 14 20 30 8 17
18 27 23 24 6 -3 4 -11 -4 -17 -8 -7 -17 -24 -21 -39 -5 -24 -3 -27 26 -31 18
-2 7 -4 -24 -4 -32 0 -61 -3 -65 -6 -3 -4 3 -7 15 -7 12 0 22 -4 22 -10 0 -5
-6 -7 -14 -4 -8 3 -17 1 -21 -5 -3 -6 -1 -11 5 -11 7 0 9 -7 6 -16 -4 -10 1
-25 10 -35 16 -18 16 -19 -7 -20 -15 -1 -9 -5 16 -9 22 -4 30 -8 18 -9 -33 -2
-28 -21 5 -22 22 -1 23 -2 5 -6 -25 -5 -37 -33 -28 -63 3 -11 2 -20 -4 -20 -5
0 -12 8 -14 18 -4 13 -5 12 -6 -5 0 -12 4 -23 11 -25 7 -3 8 -10 4 -17 -7 -11
-10 -11 -17 0 -6 10 -9 8 -9 -8 0 -18 8 -24 43 -31 l42 -10 -42 -1 c-34 -1
-43 -5 -42 -18 0 -11 3 -13 6 -5 6 15 33 16 33 1 0 -5 -4 -7 -10 -4 -5 3 -10
2 -10 -4 0 -5 10 -12 23 -14 22 -4 22 -4 -2 -6 -19 -1 -23 -5 -19 -25 3 -16 0
-27 -9 -30 -11 -4 -11 -10 -3 -26 8 -15 17 -18 40 -13 20 3 30 1 30 -6 0 -7
-4 -10 -9 -7 -5 4 -17 3 -28 -1 -14 -6 -11 -9 17 -14 34 -6 34 -6 -9 -8 -42
-1 -43 -2 -25 -16 16 -12 16 -14 3 -15 -9 0 -19 -8 -21 -18 -4 -15 2 -19 31
-21 44 -3 55 -11 14 -11 -19 0 -33 -6 -37 -16 -5 -14 -4 -15 9 -4 13 11 18 11
28 0 9 -9 9 -11 0 -6 -15 8 -27 -10 -13 -19 8 -5 7 -11 -1 -22 -16 -19 -19
-53 -5 -53 6 0 5 -4 -2 -9 -7 -4 -12 -14 -10 -22 2 -8 -2 -13 -8 -12 -7 1 -10
-6 -7 -17 4 -13 14 -20 32 -20 23 -1 24 -2 8 -11 -10 -6 -25 -8 -33 -5 -8 3
-14 1 -14 -4 0 -6 13 -10 30 -10 22 0 28 -4 24 -15 -4 -8 -11 -12 -17 -8 -6 4
-8 -2 -4 -16 7 -29 -1 -51 -19 -51 -9 0 -14 -12 -14 -35 0 -19 4 -35 9 -35 4
0 6 11 4 24 -5 26 23 44 41 26 8 -8 7 -11 -4 -8 -9 2 -16 -6 -18 -21 -3 -18 0
-22 12 -18 8 3 18 2 21 -3 4 -6 -5 -10 -19 -10 -29 0 -36 -19 -8 -21 9 -1 4
-5 -13 -9 l-30 -8 31 -1 c29 -1 53 -25 39 -39 -3 -3 -5 1 -5 8 0 9 -5 8 -19
-4 -11 -10 -25 -15 -30 -11 -7 3 -11 -3 -11 -16 0 -16 3 -19 13 -11 16 14 39
-18 27 -38 -4 -7 -7 -26 -5 -42 3 -19 0 -26 -7 -22 -8 5 -9 2 -5 -9 3 -10 2
-17 -2 -17 -5 0 -12 -8 -15 -17 -6 -16 -6 -16 12 0 17 15 20 15 38 1 18 -15
18 -15 -4 -9 -18 5 -22 2 -22 -15 0 -16 -4 -20 -16 -16 -9 3 -12 2 -9 -5 4 -5
14 -7 23 -5 10 3 24 1 32 -5 13 -10 13 -10 -1 -6 -9 3 -22 1 -30 -4 -11 -7
-11 -9 0 -9 7 0 11 -6 8 -14 -8 -20 30 -27 48 -9 8 8 15 10 15 4 0 -6 12 -12
28 -12 15 -1 5 -5 -23 -9 -36 -5 -56 -4 -72 6 -28 18 -29 18 -29 -4 0 -14 7
-18 23 -16 28 3 31 -12 3 -19 -11 -3 -20 -11 -20 -17 0 -10 3 -10 14 -1 10 8
16 9 21 1 3 -5 1 -10 -4 -10 -6 0 -11 -7 -11 -16 0 -9 -5 -12 -13 -8 -6 4 -9
4 -5 -1 4 -4 3 -17 -3 -27 -8 -15 -8 -23 1 -32 8 -8 10 -7 5 5 -4 10 -2 20 3
23 5 3 12 -4 15 -16 4 -12 1 -25 -5 -29 -6 -4 -4 -11 8 -18 17 -10 17 -11 -6
-12 -17 -1 -20 -3 -7 -6 19 -5 24 -23 5 -23 -6 0 -4 -6 7 -13 12 -10 14 -16 7
-21 -7 -4 -12 -16 -12 -27 0 -10 -4 -19 -10 -19 -5 0 -10 -4 -10 -10 0 -6 9
-6 26 0 32 12 34 12 34 0 0 -5 -9 -10 -19 -10 -24 0 -36 -16 -19 -23 7 -3 3
-6 -10 -6 -13 -1 -20 -5 -17 -11 4 -6 10 -8 14 -6 4 3 12 -4 19 -14 9 -16 8
-20 -7 -25 -11 -3 -22 -12 -25 -20 -4 -11 3 -15 27 -16 19 -1 24 -3 13 -6 -14
-4 -17 -11 -12 -35 3 -17 14 -37 24 -44 16 -12 15 -13 -5 -14 -15 0 -23 -6
-23 -17 0 -12 3 -14 8 -7 5 9 11 8 20 -2 11 -12 10 -14 -6 -14 -10 0 -23 5
-30 12 -9 9 -12 8 -12 -4 0 -9 9 -20 20 -23 11 -3 20 -15 20 -26 0 -24 -27
-25 -33 -2 -4 14 -5 12 -6 -4 -1 -20 4 -23 34 -23 19 0 35 -5 35 -11 0 -7 -14
-10 -35 -7 -19 2 -35 0 -35 -4 0 -4 15 -9 33 -9 23 -1 26 -3 9 -6 -12 -2 -22
-8 -22 -12 0 -13 24 -31 42 -31 10 0 18 -4 18 -9 0 -5 -10 -7 -22 -4 -14 4
-20 2 -15 -3 9 -10 11 -10 60 -14 25 -2 27 -4 9 -7 -12 -2 -20 -9 -17 -14 4
-5 1 -9 -4 -9 -6 0 -11 -4 -11 -8 0 -15 78 -12 84 4 3 8 11 14 18 14 9 0 9 -3
1 -11 -8 -8 -7 -16 5 -30 20 -23 47 -26 38 -4 -4 11 1 15 17 15 16 0 18 -3 8
-9 -9 -6 -11 -18 -6 -40 7 -32 20 -40 28 -18 4 10 6 10 6 0 1 -7 6 -13 12 -13
5 0 7 5 4 10 -3 6 -1 10 4 10 6 0 11 -4 11 -9 0 -5 18 -9 40 -9 40 -1 55 13
23 21 -17 4 -17 5 0 6 10 0 20 -6 23 -14 5 -13 44 -15 273 -14 146 1 256 4
243 6 -12 2 -20 8 -17 13 3 5 12 7 20 3 10 -3 15 1 15 12 0 9 4 14 9 11 5 -3
7 -15 4 -26 -5 -19 0 -20 148 -20 84 0 150 3 146 6 -3 4 -46 6 -94 5 -48 -1
-84 1 -81 4 4 4 53 8 110 10 57 2 97 1 90 -2 -17 -7 -15 -23 3 -23 8 0 15 7
15 15 0 8 4 15 10 15 5 0 7 -6 4 -14 -8 -21 109 -18 118 3 6 14 7 14 7 -1 1
-12 9 -18 24 -17 17 1 18 2 4 6 -9 2 -15 8 -12 13 6 10 45 1 45 -11 0 -5 5 -9
11 -9 5 0 8 4 4 9 -3 5 -1 12 5 16 5 3 10 -2 10 -12 1 -17 1 -17 11 0 14 23
156 26 165 2 4 -8 18 -15 33 -14 l26 1 -27 10 c-31 11 -37 32 -12 42 23 9 34
7 34 -4 0 -5 -7 -7 -15 -4 -8 4 -15 1 -15 -5 0 -6 9 -11 20 -11 12 0 20 -7 20
-16 0 -13 3 -14 13 -5 10 8 17 7 25 -1 7 -7 12 -9 12 -4 0 11 -27 36 -39 36
-6 0 -11 5 -11 10 0 16 38 11 48 -6 8 -14 31 -17 136 -18 98 -2 126 1 126 11
0 7 8 13 18 13 14 0 15 -2 2 -10 -12 -7 -8 -10 15 -10 29 -1 29 -1 11 -15 -19
-14 -18 -15 15 -14 19 0 28 3 22 6 -27 10 -11 20 32 21 26 1 45 -3 45 -9 0 -6
-6 -9 -13 -6 -8 3 -20 1 -27 -3 -7 -5 35 -8 94 -8 71 0 105 3 98 10 -11 11 -4
48 8 48 5 0 6 -10 4 -22 l-5 -23 12 22 c7 13 16 23 21 23 5 0 2 -10 -6 -22 -9
-12 -16 -25 -16 -29 0 -3 70 -7 155 -8 113 -1 155 1 155 10 0 8 -15 10 -50 5
-27 -4 -50 -3 -50 1 0 5 24 9 54 11 45 3 55 0 59 -15 4 -17 5 -17 6 0 1 19 21
24 21 4 0 -16 72 -16 77 1 3 6 9 12 14 12 4 0 6 -7 3 -15 -4 -8 -1 -15 5 -15
6 0 11 7 11 15 0 24 -4 30 -17 27 -7 -2 -13 1 -13 7 0 5 20 9 45 9 31 -1 45
-5 45 -15 0 -20 20 -16 21 5 0 14 2 14 9 -3 7 -17 9 -17 9 -3 1 12 6 15 17 11
11 -4 12 -8 4 -13 -7 -4 8 -9 34 -11 39 -4 46 -1 46 13 0 10 5 18 10 18 6 0
10 -8 10 -17 0 -13 3 -14 11 -6 9 9 15 8 25 -2 21 -21 18 -24 -33 -28 -27 -2
14 -4 90 -5 82 -1 137 2 137 8 0 5 -30 8 -70 7 -38 -2 -70 0 -70 5 0 4 38 8
85 8 57 0 85 4 85 11 0 8 -14 10 -40 6 -22 -3 -40 -1 -40 4 0 5 12 9 28 10 24
0 25 1 7 9 -18 8 -17 9 8 9 16 1 26 -3 22 -9 -11 -17 7 -11 21 8 13 16 14 16
8 0 -4 -13 -1 -18 11 -18 9 0 13 5 10 10 -3 6 4 10 17 10 13 0 18 -3 12 -8 -7
-4 -8 -15 -4 -27 9 -24 40 -53 40 -37 0 6 -6 13 -12 15 -8 4 -7 6 3 6 9 1 20
12 23 26 6 24 26 36 26 15 0 -5 5 -10 11 -10 5 0 7 5 4 10 -3 5 -1 10 4 10 6
0 11 -4 11 -10 0 -5 9 -10 20 -10 11 0 20 -7 20 -15 0 -8 5 -15 10 -15 6 0 10
7 10 15 0 13 13 15 70 14 51 -1 70 -5 70 -15 0 -8 11 -14 26 -14 15 0 23 4 19
11 -4 6 -13 8 -21 5 -8 -3 -14 -1 -14 4 0 18 48 11 53 -7 4 -17 5 -17 6 0 0 9
6 17 12 17 6 0 9 -7 5 -15 -3 -9 0 -15 9 -15 8 0 15 -5 15 -11 0 -7 -14 -10
-35 -7 -19 2 -35 0 -35 -4 0 -4 25 -8 55 -8 32 0 55 4 55 11 0 5 -4 8 -9 4 -5
-3 -12 -1 -16 5 -3 5 -1 10 4 10 6 0 11 7 11 15 0 10 11 15 35 15 19 0 35 -5
35 -11 0 -5 -4 -7 -10 -4 -5 3 -10 1 -10 -4 0 -6 9 -11 20 -11 11 0 20 -4 20
-9 0 -4 -13 -7 -30 -5 -16 2 -30 -1 -30 -7 0 -13 109 -7 118 7 7 10 46 15 116
14 16 0 35 -8 41 -17 6 -9 18 -13 26 -10 10 4 9 6 -3 6 -10 1 -18 6 -18 11 0
6 6 10 13 9 37 -5 67 2 67 16 0 8 4 15 10 15 5 0 7 -8 4 -17 -5 -17 -5 -17 9
0 21 26 30 21 11 -7 -9 -15 -28 -26 -47 -29 -18 -2 -6 -4 26 -4 41 0 57 4 57
14 0 7 5 13 11 13 6 0 9 -7 5 -15 -4 -12 9 -14 89 -12 63 1 86 5 72 10 -12 5
-41 7 -64 4 -24 -2 -43 -1 -43 4 0 8 50 14 74 10 54 -11 70 -12 58 -4 -9 7 -5
13 15 24 16 8 31 17 34 21 3 5 14 1 25 -7 19 -15 19 -16 -1 -14 -34 2 -45 -1
-45 -12 0 -6 6 -9 14 -6 24 10 28 -6 4 -19 -19 -10 11 -13 165 -13 163 0 187
2 177 14 -9 11 -17 12 -32 4 -11 -6 -22 -8 -26 -5 -11 12 10 21 49 20 35 -1
37 0 22 12 -16 12 -16 13 -2 14 9 0 22 -7 30 -16 10 -13 10 -17 -2 -25 -11 -7
-11 -9 4 -9 9 0 17 7 17 15 0 22 17 18 23 -5 3 -11 11 -20 19 -19 10 0 10 2 1
6 -24 9 -14 33 15 34 23 0 24 2 8 8 -19 7 -19 8 2 13 15 4 22 2 22 -8 0 -8 4
-14 9 -14 5 0 11 -8 13 -18 4 -15 15 -19 46 -19 23 0 39 4 36 9 -3 5 -14 6
-25 3 -10 -4 -19 -2 -19 4 0 5 -3 18 -7 28 -7 17 -6 17 11 0 21 -21 27 -22 20
-2 -4 8 -2 15 4 15 5 0 12 -7 16 -15 3 -10 16 -13 36 -11 26 3 31 0 27 -13 -3
-13 4 -18 30 -19 23 -2 32 1 28 8 -4 6 -16 8 -27 4 -14 -4 -19 -2 -16 7 5 15
48 20 48 5 0 -6 9 0 20 14 20 25 20 25 32 5 17 -28 16 -29 -17 -35 -16 -3 77
-6 208 -7 130 -1 237 2 237 7 0 4 -41 8 -92 8 -78 0 -93 3 -102 19 -6 10 -11
22 -11 26 0 4 -7 12 -15 17 -13 9 -13 10 0 10 9 0 23 -13 32 -28 15 -25 22
-28 50 -23 l33 6 -29 3 c-30 4 -60 25 -49 36 9 8 23 8 22 -1 -3 -19 2 -27 10
-15 10 17 86 28 95 14 4 -6 -6 -10 -26 -10 -52 0 -65 -3 -38 -11 14 -4 24 -13
22 -19 -1 -7 2 -12 8 -12 5 0 10 7 10 15 0 9 9 15 24 15 33 0 57 10 50 21 -3
5 0 9 5 9 6 0 11 -7 11 -15 0 -8 7 -15 16 -15 9 0 23 -8 30 -17 13 -17 13 -17
14 0 0 15 11 17 85 17 67 0 85 -3 85 -14 0 -12 14 -14 68 -11 43 2 66 7 64 14
-1 6 11 11 28 11 22 0 28 -4 24 -15 -5 -12 2 -15 37 -14 28 1 35 3 19 6 -51 9
-43 23 12 20 39 -1 54 -6 51 -15 -4 -9 13 -12 68 -11 68 1 70 2 29 9 -25 4
-50 5 -56 3 -7 -2 -15 0 -19 6 -4 7 4 11 19 11 14 0 28 5 32 11 4 8 -4 9 -27
5 l-34 -5 34 11 c28 10 35 9 43 -5 12 -23 80 -24 72 -2 -4 8 -1 15 4 15 6 0
13 -8 15 -17 4 -14 5 -14 6 -3 1 11 14 16 47 18 36 1 44 -1 36 -11 -8 -9 -4
-13 16 -14 60 -5 87 16 56 44 -9 9 -14 9 -18 -2 -3 -8 -1 -15 4 -15 23 0 8
-15 -16 -16 -18 -2 -24 2 -20 12 3 8 -1 14 -9 14 -21 0 -19 10 7 32 12 11 31
17 41 14 15 -4 16 -2 6 10 -9 11 -6 14 17 15 26 2 26 2 5 6 -13 3 -28 0 -34
-6 -17 -17 -26 -13 -20 10 3 11 11 18 18 15 20 -7 26 5 10 21 -8 8 -15 20 -15
26 0 7 5 4 11 -5 5 -10 20 -18 32 -17 20 1 20 2 -3 9 l-25 7 25 11 25 11 -26
0 c-22 1 -39 17 -39 37 0 2 12 4 26 4 14 0 23 -4 19 -10 -3 -6 -1 -10 4 -10 6
0 11 7 11 15 0 9 -9 15 -22 15 -17 0 -23 6 -23 23 0 19 4 22 23 19 12 -2 22 1
22 7 0 6 -3 10 -7 10 -20 -3 -26 2 -13 11 12 8 10 10 -9 10 -21 0 -22 2 -10
17 10 11 10 14 2 9 -7 -4 -13 -2 -13 3 0 6 12 12 28 12 23 2 24 2 4 6 -12 2
-22 9 -22 14 0 6 9 7 20 4 11 -4 20 -2 20 4 0 10 -22 16 -43 12 -5 -1 -6 3 -2
9 4 6 15 8 26 5 16 -5 19 -2 18 22 0 23 -2 25 -8 9 -7 -19 -8 -19 -13 2 -5 16
-2 22 10 23 10 1 7 4 -8 9 -24 8 -24 8 -2 9 28 1 30 37 2 44 -14 4 -20 0 -20
-11 0 -15 -2 -15 -10 -2 -12 18 -13 30 -2 29 32 -5 52 3 52 22 0 11 -4 18 -9
14 -5 -3 -12 -1 -16 5 -3 5 1 10 9 10 9 0 16 9 16 20 0 11 -7 20 -15 20 -8 0
-15 5 -15 10 0 6 6 9 13 8 9 -2 12 19 12 80 1 60 -3 82 -12 82 -19 0 -16 18 5
23 13 4 11 5 -5 6 -13 0 -23 5 -23 11 0 5 6 7 14 4 8 -3 17 -1 21 5 3 6 -2 11
-12 12 -10 0 -13 3 -5 6 17 7 15 21 -5 26 -14 4 -12 5 5 6 34 2 26 19 -10 24
l-33 4 35 2 c33 3 33 4 10 11 -24 8 -24 8 -2 9 27 1 30 28 5 47 -17 13 -17 13
2 15 11 1 4 5 -15 9 l-35 7 33 2 c34 1 44 16 15 24 -17 4 -17 5 0 6 9 0 17 6
17 12 0 7 -11 9 -30 6 -16 -4 -32 -2 -35 3 -4 6 10 10 32 11 34 1 35 2 13 9
-24 8 -24 8 -2 9 15 1 22 7 22 21 0 12 -10 24 -22 30 -23 9 -23 9 2 10 23 1
23 2 5 9 l-20 8 20 5 c18 5 18 6 -2 7 -13 0 -23 6 -23 12 0 6 9 9 20 6 25 -6
27 8 3 18 -17 7 -16 8 2 15 19 8 19 9 -2 9 -13 1 -23 5 -23 11 0 5 6 7 14 4 8
-3 17 0 22 7 4 7 3 10 -4 5 -6 -3 -13 -2 -16 3 -4 5 2 12 11 14 14 4 13 5 -4
6 -13 0 -23 5 -23 10 0 5 8 8 18 7 15 -1 17 11 18 112 l1 112 -26 0 c-19 0
-22 3 -12 9 8 5 19 7 25 5 6 -2 12 7 12 21 1 17 -3 25 -15 26 -12 0 -11 2 4 8
19 8 18 9 -5 13 l-25 5 25 2 c23 2 24 3 5 11 -17 7 -17 9 -2 9 25 1 21 19 -5
24 l-23 4 23 2 c45 2 20 21 -30 23 l-53 2 49 3 c45 4 47 5 30 19 -18 14 -18
15 4 9 13 -4 22 -2 22 4 0 6 -12 12 -27 12 l-28 1 25 7 c21 5 26 12 26 39 1
17 -2 32 -7 32 -5 0 -6 7 -3 15 4 10 0 15 -12 16 -14 1 -13 3 6 9 14 4 19 8
11 9 -11 1 -11 4 -1 16 10 12 9 15 -6 16 -15 0 -16 2 -4 7 13 6 16 28 17 120
1 108 0 112 -21 113 -18 1 -18 2 -3 6 10 3 16 11 13 18 -3 8 0 16 7 19 7 3 6
5 -3 5 -9 1 -22 -5 -29 -12 -10 -10 -11 -9 -6 5 4 9 16 19 28 23 18 6 14 9
-23 15 l-45 7 45 2 c33 1 41 4 30 11 -13 9 -13 11 0 20 13 8 12 10 -3 10 -16
0 -16 2 -2 23 13 21 17 87 5 87 -10 0 -5 65 5 72 5 4 0 8 -12 8 -14 0 -23 6
-23 15 0 8 -5 15 -12 15 -6 0 -8 3 -4 7 4 5 14 -1 22 -11 14 -20 14 -20 15 0
0 18 1 18 9 -1 8 -19 9 -19 9 3 1 13 -5 22 -14 22 -8 0 -15 5 -15 11 0 5 4 8
9 4 5 -3 12 -1 15 4 4 5 -5 8 -19 6 -14 -1 -28 2 -31 6 -3 5 2 9 10 9 9 0 16
8 17 18 0 15 1 14 8 -2 7 -19 8 -19 13 2 6 23 -4 27 -59 22 -13 -1 -23 4 -23
10 0 7 7 10 15 6 9 -3 15 0 15 9 0 10 10 15 30 15 23 0 30 5 30 19 0 11 -8 22
-17 24 -17 4 -17 5 0 6 10 1 17 9 17 20 0 39 -11 51 -48 51 -45 0 -38 8 11 12
30 2 37 6 36 23 0 11 -3 14 -6 8 -7 -19 -19 -16 -20 6 -1 11 6 22 15 24 15 4
15 5 0 6 -10 0 -18 5 -18 11 0 5 7 7 15 4 8 -4 15 -1 15 5 0 6 -16 10 -35 9
-19 -1 -38 2 -42 5 -3 4 14 8 38 8 24 1 34 4 22 6 -13 2 -23 9 -23 14 0 5 10
10 23 10 17 1 18 2 4 6 -9 2 -15 9 -11 14 3 5 10 7 15 4 5 -4 9 -1 9 5 0 6
-11 8 -24 6 -24 -4 -64 30 -50 42 4 4 9 1 11 -6 3 -6 9 -10 14 -7 5 4 6 -2 3
-12 -5 -14 0 -12 19 7 23 23 24 27 11 48 -13 19 -13 22 2 22 13 0 14 3 5 13
-6 8 -8 17 -5 20 3 3 -8 5 -25 5 -17 -1 -34 2 -38 5 -3 4 11 7 33 7 33 0 40 3
40 20 0 23 -34 28 -42 6 -3 -8 -16 -13 -30 -12 -28 1 -29 3 -10 22 11 10 15
11 19 1 2 -6 7 -9 11 -5 4 3 3 16 -4 27 -9 17 -8 21 4 21 10 0 13 -6 10 -15
-4 -9 0 -15 10 -15 12 0 14 7 10 30 -5 25 -3 30 12 31 18 0 18 1 0 8 -19 7
-19 8 0 16 15 7 10 10 -26 15 l-45 7 43 1 c23 1 42 6 42 12 0 5 -8 7 -17 4
-15 -5 -15 -3 1 10 19 15 15 16 -55 18 l-74 2 75 6 c41 4 67 7 58 8 -9 1 -20
7 -24 14 -5 8 0 9 14 6 12 -4 20 -2 16 3 -3 5 -14 9 -25 9 -10 0 -19 5 -19 11
0 5 4 7 10 4 5 -3 18 -1 27 4 17 10 17 10 0 11 -22 0 -19 32 3 42 10 4 7 7
-10 7 -19 1 -22 3 -10 10 8 6 18 7 22 5 4 -3 8 0 8 7 0 7 -10 9 -25 7 -14 -3
-25 -1 -25 3 0 5 7 9 15 9 9 0 12 6 9 15 -4 10 0 15 12 15 16 0 17 2 4 10 -13
9 -13 11 0 20 12 8 10 10 -10 10 -14 0 -20 4 -14 8 12 8 26 42 17 42 -3 0 -11
-7 -17 -16 -10 -13 -12 -13 -12 5 0 15 7 21 23 21 33 0 29 20 -4 21 l-28 1 30
8 c21 5 24 8 10 9 -20 2 -20 2 -1 16 19 15 19 15 -2 15 l-23 0 20 22 c16 16
18 25 10 35 -6 7 -8 13 -3 14 5 0 0 4 -11 9 -19 8 -18 9 4 9 20 1 21 3 11 16
-10 12 -10 15 1 16 8 1 3 5 -11 9 -24 8 -24 8 -2 9 12 1 22 6 22 12 0 6 -6 9
-13 6 -8 -3 -20 -1 -28 4 -10 6 -7 9 14 9 29 0 39 20 10 21 -15 0 -15 2 2 9
11 5 14 9 6 9 -11 1 -11 4 -1 16 10 12 10 15 -4 15 -22 0 -21 20 2 21 9 1 4 5
-13 9 l-30 8 27 1 c25 1 27 4 26 37 -1 32 -4 35 -25 31 -12 -2 -23 0 -23 4 0
5 12 10 28 10 23 2 24 2 5 6 -13 2 -23 9 -23 14 0 6 4 8 8 5 4 -2 14 -1 21 4
16 10 7 42 -11 39 -7 -1 -24 0 -38 1 -17 2 -10 5 20 10 44 7 43 7 -19 8 -78 2
-74 15 4 15 30 0 55 4 55 9 0 4 -5 8 -11 8 -8 0 -7 6 2 16 13 15 11 17 -19 12
-17 -2 -32 -1 -32 4 0 4 15 8 33 8 24 0 28 3 17 10 -10 6 -11 10 -2 10 18 0
15 18 -5 23 -17 4 -16 5 0 6 16 1 18 8 15 48 -3 45 -5 48 -31 48 -15 -1 -27 3
-27 7 0 4 15 8 33 8 24 0 28 3 17 10 -13 9 -13 11 0 20 12 8 13 13 2 30 -7 11
-8 20 -2 20 5 0 9 15 8 34 -1 26 -5 33 -17 29 -12 -3 -11 0 3 11 19 15 18 16
-16 16 -31 0 -35 3 -31 20 6 21 25 29 21 8 -2 -7 7 -14 20 -16 12 -2 22 1 22
7 0 6 -8 8 -17 5 -15 -5 -15 -3 1 10 19 15 18 16 -22 16 -23 0 -42 5 -42 10 0
6 15 8 40 4 40 -7 59 10 23 19 -17 4 -17 5 0 6 20 1 23 17 5 24 -10 4 -10 6 0
6 6 1 12 9 12 19 0 13 -2 14 -9 3 -5 -7 -14 -12 -20 -10 -8 3 -5 12 8 26 27
29 17 53 -23 54 -30 2 -30 2 -3 6 28 5 36 18 15 26 -7 3 -3 6 10 6 13 1 21 5
17 11 -3 5 -12 7 -20 3 -8 -3 -15 0 -15 5 0 6 9 9 20 7 11 -2 20 0 20 6 0 5
-8 9 -17 9 -15 0 -14 2 3 15 10 8 14 14 8 13 -7 -2 -12 2 -12 7 0 6 4 9 9 7 5
-1 9 3 9 9 0 6 -9 8 -20 4 -11 -3 -20 -2 -20 4 0 5 10 12 23 14 18 3 16 5 -8
6 l-30 2 30 14 c24 11 26 14 10 15 l-20 1 20 9 c17 7 17 9 3 9 -10 1 -18 6
-18 11 0 6 8 10 18 11 11 1 9 4 -8 9 -24 8 -24 8 -2 9 31 1 28 19 -5 24 l-28
4 30 2 c26 2 27 3 10 11 -17 7 -17 9 -2 9 25 1 21 21 -5 22 l-23 0 23 9 c12 5
22 17 21 27 0 11 -3 13 -6 6 -8 -21 -22 -15 -16 7 3 11 8 18 12 15 4 -2 7 20
8 48 0 29 -2 46 -4 40 -8 -23 -18 -14 -19 17 -1 32 12 41 19 13 4 -14 5 -13 6
4 0 12 -5 24 -11 27 -10 5 -10 7 -1 12 10 4 10 11 2 26 -8 16 -8 23 2 29 10 6
3 9 -21 10 -28 0 -31 2 -15 8 11 5 23 7 27 5 4 -3 9 0 13 6 3 5 1 10 -4 10 -6
0 -11 5 -11 11 0 5 3 8 8 6 4 -3 8 10 9 29 3 29 0 34 -20 35 -21 1 -21 1 3 9
25 7 24 9 -20 23 -8 3 -2 6 14 6 28 1 29 2 10 16 -19 14 -19 14 1 15 17 0 17
2 5 10 -8 5 -10 10 -5 10 6 0 11 9 11 20 0 20 -10 24 -56 21 -20 -2 -22 0 -10
8 8 6 25 11 36 11 20 0 41 27 29 38 -2 3 -7 -3 -11 -12 -3 -9 -10 -16 -16 -16
-5 0 -6 5 -2 11 3 6 0 15 -7 20 -11 7 -9 9 6 10 11 1 22 1 25 1 3 0 6 8 6 18
0 10 -4 16 -8 14 -11 -7 -10 14 2 37 9 16 7 19 -10 19 -24 0 -55 26 -41 34 5
3 11 -1 14 -8 8 -21 43 -16 43 6 0 14 -8 18 -33 18 -17 0 -34 4 -38 10 -3 5 7
8 23 5 34 -4 46 3 48 28 1 12 -5 17 -22 17 -13 0 -24 4 -24 9 0 4 10 7 23 6
17 -2 22 3 23 20 1 18 -3 21 -25 18 -26 -3 -26 -3 -3 8 12 7 22 19 22 27 0 12
-3 12 -15 -4 -18 -24 -20 -6 -2 21 26 39 27 53 3 51 -12 -2 -31 1 -41 5 -14 5
-7 8 24 8 49 1 51 12 2 13 -17 1 -31 5 -31 11 0 5 14 7 30 5 17 -3 30 -1 30 4
0 4 -10 8 -22 9 l-23 0 23 9 c12 5 22 12 22 15 0 4 -10 6 -22 5 -42 -4 -43 3
-3 10 l40 7 -42 2 c-24 0 -43 6 -43 12 0 6 7 9 14 6 10 -4 13 -1 9 9 -3 9 2
14 16 14 13 0 19 5 15 14 -3 8 2 16 13 19 14 4 12 5 -7 7 l-25 2 25 8 c24 8
24 8 3 9 -24 1 -33 21 -9 21 14 0 30 29 21 38 -3 3 -5 -1 -5 -9 0 -12 -2 -11
-11 1 -9 13 -10 12 -5 -2 4 -15 -1 -18 -32 -17 -30 2 -32 3 -9 6 25 4 39 23
16 23 -5 0 -8 4 -5 9 3 4 17 7 31 6 14 -2 25 1 25 6 0 5 -28 10 -62 11 l-63 1
65 7 c36 4 57 7 48 8 -23 3 -23 19 0 25 9 3 0 5 -21 6 -21 0 -36 5 -33 9 3 5
20 7 38 5 l33 -3 -30 15 c-27 13 -28 14 -7 15 20 0 34 20 14 20 -5 0 -9 7 -9
15 0 8 5 15 12 15 6 0 11 9 11 19 0 11 -4 17 -8 15 -4 -3 -8 0 -8 5 0 6 5 11
11 11 5 0 7 5 3 11 -3 6 -19 9 -35 5 -16 -3 -29 -1 -29 4 0 6 17 10 38 10 30
1 34 3 19 11 -9 5 -22 7 -27 4 -6 -3 -10 -1 -10 4 0 6 12 11 28 12 l27 1 -25
8 c-14 4 -21 8 -16 9 5 1 3 8 -4 16 -10 13 -9 15 10 15 16 0 20 -4 16 -16 -3
-8 -2 -12 4 -9 9 6 9 66 0 60 -3 -1 -14 1 -25 6 -18 7 -18 8 5 8 22 1 26 5 25
33 0 18 -5 33 -12 33 -6 0 -15 3 -19 8 -4 4 2 7 14 7 15 0 22 6 22 20 0 13 -7
20 -20 20 -11 0 -20 5 -20 11 0 6 7 9 15 6 8 -4 17 -1 21 5 4 6 3 9 -2 6 -5
-3 -18 -2 -29 3 -18 7 -18 8 5 8 21 1 25 6 25 34 0 29 -3 33 -35 38 -19 4 -27
7 -17 8 9 0 17 8 17 16 0 8 6 15 13 15 8 0 7 4 -3 10 -13 8 -13 10 2 10 9 0
20 4 23 10 3 6 -1 7 -9 4 -9 -3 -16 -1 -16 5 0 6 5 11 10 11 6 0 10 5 10 12 0
6 -8 4 -19 -6 -11 -10 -29 -16 -43 -13 -21 4 -20 4 5 6 17 0 27 7 27 16 0 9
10 16 23 16 18 1 16 3 -8 9 -22 6 -25 8 -10 10 11 1 24 2 28 1 5 -1 6 3 2 9
-3 6 -10 8 -15 5 -5 -3 -11 -1 -15 5 -3 5 1 10 9 10 8 0 17 4 21 9 3 6 -5 8
-19 5 -14 -2 -28 0 -31 6 -4 6 7 11 27 11 23 1 26 3 11 6 -13 2 -23 9 -23 15
0 5 7 8 15 5 8 -4 17 -2 20 3 4 6 -10 10 -32 11 -21 0 -32 3 -25 6 6 2 12 11
12 19 0 8 11 14 28 15 l27 1 -30 7 -30 7 25 8 c23 8 21 9 -20 16 l-45 7 38 1
c21 1 36 6 32 11 -3 6 3 14 12 20 15 9 14 10 -11 11 -31 0 -31 10 1 14 13 2
18 11 18 34 0 18 -3 32 -7 32 -5 0 -8 5 -8 11 0 5 3 8 8 6 4 -3 8 10 9 29 l3
34 -48 1 c-38 0 -43 2 -24 9 12 5 22 14 22 20 0 5 5 10 11 10 8 0 8 -4 -1 -14
-9 -12 -8 -15 8 -13 12 0 18 6 15 14 -3 7 -1 13 4 13 5 0 9 9 9 19 0 11 -4 17
-8 15 -11 -7 -10 18 2 36 5 9 5 17 -1 21 -6 4 -6 15 0 32 9 24 8 27 -10 27
-11 0 -22 -7 -25 -15 -4 -10 -18 -14 -43 -13 l-36 1 33 4 c18 3 36 11 39 19 3
8 14 14 24 14 28 0 25 37 -3 43 -22 4 -21 4 2 6 23 1 25 5 26 52 1 40 -2 48
-10 37 -13 -17 -56 -30 -56 -17 0 5 9 9 20 9 11 0 20 7 20 15 0 8 6 16 13 16
6 1 -1 5 -18 9 l-30 8 33 1 c17 0 32 5 32 10 0 4 -11 6 -25 3 -15 -2 -25 0
-25 7 0 6 9 11 20 11 11 0 20 5 20 11 0 5 -5 7 -12 3 -8 -5 -9 -2 -5 10 4 10
7 23 8 29 0 7 4 3 9 -8 5 -13 7 -1 5 34 -2 30 -9 57 -16 61 -6 4 -8 13 -5 19
4 6 11 9 15 7 3 -3 7 4 7 14 0 10 -4 16 -8 14 -4 -3 -8 0 -8 5 0 6 5 11 11 11
5 0 7 5 3 12 -5 8 -11 6 -19 -5 -7 -10 -16 -17 -20 -17 -4 0 -3 6 3 13 9 10 7
19 -4 35 -13 20 -13 21 1 16 8 -3 15 -10 15 -15 0 -5 7 -9 15 -9 8 0 15 5 15
11 0 5 -5 7 -10 4 -7 -4 -9 2 -4 19 5 22 3 26 -17 26 -26 0 -16 15 16 23 17 4
16 5 -5 7 l-25 2 25 8 25 8 -27 1 c-33 1 -48 21 -16 22 21 1 21 2 -7 15 l-30
14 35 -2 c29 -3 35 0 35 17 0 14 -6 19 -17 17 -20 -3 -24 14 -5 21 6 3 0 6
-15 6 -41 1 -34 19 10 24 34 3 33 4 -10 5 -27 1 -48 6 -48 10 0 14 23 32 42
32 10 0 18 6 18 13 0 9 2 9 9 -1 6 -11 9 -9 14 7 3 11 2 20 -2 19 -18 -2 -44
4 -34 8 7 3 9 12 6 20 -3 8 0 14 6 14 6 0 11 8 12 18 0 14 2 14 9 -3 7 -16 9
-17 9 -3 1 25 -15 30 -35 11 -17 -17 -18 -17 -11 0 4 10 2 18 -6 18 -7 1 4 5
23 9 31 7 32 7 8 9 -16 0 -28 5 -28 10 0 6 9 8 19 6 14 -2 20 3 24 21 4 20 0
24 -22 25 l-26 1 25 7 c25 6 38 38 15 38 -8 0 -11 -7 -8 -16 4 -11 0 -9 -10 4
-20 25 -21 36 -3 29 8 -3 19 3 25 15 14 26 14 34 -1 25 -8 -5 -9 -2 -5 9 3 9
3 16 -1 14 -4 -1 -7 3 -7 8 0 6 4 9 8 7 5 -1 5 2 2 8 -4 6 -13 9 -21 6 -8 -3
-14 0 -14 5 0 7 11 9 24 7 20 -4 23 -1 22 19 -1 20 -7 23 -41 24 -34 2 -35 3
-10 6 36 5 58 23 23 19 -13 -2 -33 1 -43 5 -14 5 -5 8 30 10 31 1 39 4 23 6
-16 2 -28 8 -28 13 0 5 12 7 26 4 16 -3 23 -1 19 6 -3 5 -14 10 -23 11 -13 0
-12 3 6 11 12 6 22 18 22 27 0 13 -2 14 -9 2 -5 -8 -16 -11 -26 -7 -10 3 -23
2 -29 -3 -6 -5 -20 -5 -31 0 -17 7 -16 8 8 8 16 1 26 5 22 10 -3 5 -1 12 5 16
5 3 10 2 10 -4 0 -6 7 -8 15 -5 20 8 19 24 -2 25 -10 1 -4 5 12 9 17 4 22 8
11 9 -12 1 -16 6 -12 16 4 12 -4 15 -37 16 l-42 1 40 8 c32 7 43 5 53 -8 11
-14 12 -14 12 1 0 10 -8 21 -17 24 -15 6 -15 7 3 14 18 7 17 8 -3 8 -12 1 -25
6 -28 11 -4 7 3 9 18 6 21 -4 25 -1 23 19 0 13 -5 21 -10 17 -5 -3 -7 5 -4 16
4 14 2 20 -4 16 -6 -4 -8 2 -3 15 4 13 1 28 -5 36 -8 9 -8 15 -2 15 6 0 15
-12 20 -27 9 -26 9 -24 8 15 0 26 -7 46 -16 52 -13 8 -12 10 3 10 27 0 22 40
-5 41 -22 0 -22 1 2 11 l25 11 -35 7 c-29 6 -30 8 -10 9 l25 2 -24 12 c-19 9
-26 8 -36 -6 -7 -9 -18 -17 -25 -17 -9 0 -7 6 5 20 12 13 32 20 59 21 23 1 31
4 19 6 -13 2 -23 10 -23 17 0 8 -13 13 -31 14 -49 1 -47 12 2 12 31 0 40 3 29
9 -8 6 -27 7 -42 4 -31 -6 -62 3 -54 15 3 5 27 6 55 2 48 -6 49 -5 39 14 -14
28 -23 35 -15 13 5 -13 3 -17 -5 -14 -7 2 -12 10 -11 16 2 6 -6 11 -17 11 -22
0 -27 -15 -7 -23 7 -4 6 -6 -5 -6 -9 -1 -19 7 -21 17 -4 16 -5 16 -6 0 -1 -12
-9 -18 -23 -18 -19 0 -20 -2 -8 -10 10 -6 11 -10 3 -10 -7 0 -13 -7 -13 -15 0
-20 -16 -19 -24 2 -4 9 -1 20 6 25 10 6 10 8 -2 8 -8 0 -21 -9 -27 -19 -10
-16 -9 -20 5 -24 10 -3 6 -5 -10 -6 -30 -1 -33 5 -18 29 6 9 5 17 -3 22 -11 7
45 13 88 9 20 -2 20 -2 0 13 -14 10 -24 11 -32 4 -7 -5 -25 -8 -40 -6 -23 2
-28 -1 -27 -19 0 -13 -7 -24 -19 -27 -13 -3 -17 0 -13 10 3 8 8 20 11 27 4 9
-18 12 -87 13 -65 1 -80 0 -51 -5 66 -11 63 -21 -6 -18 -34 2 -64 -1 -67 -5
-3 -4 2 -8 11 -8 9 0 14 -4 11 -9 -3 -5 -14 -7 -24 -4 -14 3 -18 11 -14 29 3
19 0 24 -17 24 -11 0 -21 -4 -21 -10 0 -5 7 -7 15 -4 8 4 15 1 15 -5 0 -6 -17
-11 -40 -11 -34 0 -40 3 -46 26 -5 18 -9 22 -15 13 -4 -7 -3 -19 3 -26 8 -10
4 -13 -18 -14 l-29 -1 25 -8 c23 -7 23 -8 3 -9 -36 -2 -36 -19 -1 -24 29 -3
28 -4 -9 -5 -46 -2 -48 0 -33 29 9 16 7 19 -15 19 -14 0 -25 5 -25 11 0 6 7 9
15 5 8 -3 15 -1 15 4 0 6 -25 10 -56 10 -35 0 -53 -4 -49 -10 4 -6 11 -7 17
-4 7 4 8 2 4 -4 -4 -7 -14 -12 -22 -12 -20 0 -18 -9 9 -32 12 -11 16 -17 7
-15 -8 2 -23 0 -32 -4 -10 -6 -19 -5 -23 1 -4 6 -10 8 -15 5 -4 -3 -6 4 -3 15
3 11 11 20 19 20 8 0 11 6 8 15 -4 9 -18 15 -33 14 l-26 -1 25 -8 c24 -8 24
-8 -7 -9 -17 -1 -34 -7 -36 -13 -4 -10 -8 -9 -16 2 -8 11 -6 17 7 22 18 7 17
7 -35 13 -25 2 -31 -10 -10 -19 6 -3 2 -3 -10 0 -13 3 -23 1 -23 -5 0 -6 7
-11 15 -11 8 0 15 -4 15 -10 0 -5 -3 -10 -7 -10 -18 1 -31 17 -38 50 -5 21
-10 29 -13 20 -11 -30 -72 -56 -72 -30 0 5 7 7 15 4 8 -4 15 -1 15 6 0 8 -9
10 -24 6 -14 -3 -27 -2 -31 3 -3 5 5 12 17 14 l23 4 -22 2 c-22 1 -48 -30 -36
-43 12 -11 -8 -6 -35 10 -25 15 -25 15 -8 0 19 -15 18 -16 -22 -16 -39 0 -41
1 -30 20 7 10 9 22 5 26 -9 10 -13 5 -21 -28 -5 -21 -3 -28 9 -28 21 0 19 -17
-5 -30 -16 -9 -18 -8 -14 5 4 10 0 15 -12 15 -13 0 -15 3 -7 8 8 5 9 13 3 22
-6 9 -10 10 -10 3 0 -6 -13 -11 -30 -11 -16 1 -27 5 -24 10 3 5 12 7 20 4 7
-3 16 -1 19 3 2 5 -4 11 -15 14 -11 3 -20 0 -20 -6 0 -6 -3 -7 -7 -4 -9 10
-32 -25 -33 -50 0 -13 -4 -23 -9 -23 -4 0 -7 11 -6 25 3 19 -1 25 -17 25 -17
0 -18 3 -8 15 10 13 9 15 -11 16 -13 1 -30 1 -37 0 -10 -2 -11 2 -2 18 l11 21
-2356 0 c-1342 0 -2355 -4 -2355 -9 0 -14 37 -20 75 -11 20 4 38 4 41 -1 3 -5
21 -9 40 -9 19 0 33 4 29 9 -3 6 10 5 31 0 25 -7 39 -7 49 1 10 8 15 8 20 0
10 -16 0 -22 -42 -26 -23 -2 -45 -11 -55 -24 -16 -20 -18 -20 -37 -4 -11 10
-17 22 -14 27 3 5 0 7 -8 5 -8 -3 -13 -11 -11 -17 4 -18 -109 -12 -131 7 -9 8
-20 12 -24 8 -4 -4 -1 -11 7 -16 12 -8 11 -10 -6 -10 -17 0 -20 5 -16 25 2 14
11 25 18 25 8 0 14 4 14 9 0 10 -210 9 -217 -1z m893 -14 c-3 -8 0 -11 9 -7 8
3 12 9 9 14 -3 5 7 9 21 9 16 0 24 -4 20 -11 -5 -7 12 -8 54 -3 53 6 61 4 61
-10 0 -13 -4 -15 -18 -7 -11 6 -24 6 -32 1 -8 -5 -36 -7 -62 -4 -31 4 -48 2
-48 -5 0 -6 18 -11 41 -11 34 0 39 -3 30 -13 -6 -8 -8 -17 -4 -20 3 -4 1 -7
-5 -7 -7 0 -12 7 -12 15 0 17 -25 20 -35 5 -9 -14 -25 -12 -20 3 3 6 -4 18
-15 25 -17 10 -21 10 -26 -3 -8 -19 -24 -20 -24 0 0 17 -16 20 -25 5 -3 -5 0
-10 7 -11 10 0 10 -2 1 -6 -7 -2 -13 -11 -13 -19 0 -8 -5 -14 -11 -14 -6 0 -9
6 -6 13 7 19 -12 47 -28 41 -8 -4 -15 -2 -15 3 0 17 -69 2 -75 -17 -3 -9 -15
-26 -26 -36 -18 -16 -19 -16 -13 -1 3 9 10 17 14 17 4 0 10 7 14 15 4 11 -2
15 -22 15 -22 0 -24 -2 -12 -11 13 -9 12 -10 -2 -5 -10 3 -22 -2 -27 -12 -7
-11 -11 -12 -11 -4 0 7 -4 10 -10 7 -5 -3 -10 -1 -10 4 0 6 9 11 20 11 11 0
20 7 20 15 0 8 -5 15 -11 15 -5 0 -8 -4 -5 -8 2 -4 -7 -7 -22 -6 -14 0 -28 6
-30 12 -2 8 14 12 52 12 31 0 56 -4 56 -10 0 -5 5 -10 11 -10 5 0 8 4 4 10 -3
5 28 9 80 9 47 -1 88 0 90 2 2 2 18 4 35 5 22 1 30 -3 26 -12z m1444 5 c19 0
91 2 160 3 113 3 127 1 144 -16 13 -13 21 -16 24 -8 2 7 15 12 28 12 13 0 24
5 24 11 0 5 5 7 12 3 6 -4 36 -6 65 -5 31 1 60 -3 69 -9 11 -10 14 -9 14 4 0
9 7 16 15 16 8 0 15 -6 15 -14 0 -8 3 -23 7 -33 6 -16 5 -17 -12 -3 -11 9 -16
10 -11 3 13 -22 -15 -14 -34 9 l-17 22 -7 -22 c-9 -26 -22 -28 -35 -5 -11 20
-79 22 -108 3 -16 -10 -16 -11 2 -5 11 3 16 3 12 -1 -11 -11 -100 -15 -107 -5
-6 11 -240 19 -240 9 0 -4 10 -9 23 -11 12 -2 -6 -4 -40 -3 -34 1 -66 5 -70 9
-4 5 1 5 11 1 14 -5 17 -4 12 5 -10 15 -92 8 -88 -8 3 -17 -16 -13 -28 7 -11
16 -11 16 -6 0 4 -14 -1 -18 -24 -18 -21 0 -30 5 -30 16 0 8 -5 12 -10 9 -6
-4 -7 -12 -3 -18 4 -7 -1 -6 -10 2 -13 10 -15 17 -6 27 7 9 8 14 1 14 -5 0
-12 -6 -15 -13 -3 -8 -21 -14 -41 -15 -39 -1 -43 2 -24 22 9 9 46 12 153 8 77
-2 156 -4 175 -3z m634 -1 c-6 -10 -4 -10 7 0 7 6 29 12 49 12 20 0 42 -6 49
-12 11 -10 14 -10 18 0 6 14 53 17 53 2 0 -5 5 -10 11 -10 5 0 7 5 3 11 -7 12
45 9 96 -6 19 -5 22 -4 10 4 -12 9 -11 11 8 11 12 0 22 -4 22 -10 0 -5 5 -10
11 -10 5 0 7 5 4 10 -3 6 3 10 14 10 11 0 23 -5 26 -10 4 -7 12 -7 24 0 29 15
519 4 539 -12 12 -10 14 -10 8 0 -4 6 -4 12 1 13 4 0 20 2 35 4 21 3 26 0 22
-13 -5 -15 -4 -15 5 -1 12 18 91 25 91 8 0 -6 -7 -9 -14 -6 -10 4 -13 1 -9 -9
7 -19 16 -18 33 6 12 17 26 20 100 20 54 0 91 -5 98 -12 9 -9 12 -9 12 1 0 10
3 11 14 2 8 -7 17 -8 20 -3 3 4 37 9 76 10 47 1 68 -3 64 -10 -4 -6 2 -6 15 1
14 8 87 11 222 10 181 -2 201 -3 209 -20 14 -24 13 -49 0 -29 -6 10 -10 11
-10 3 0 -8 -15 -13 -40 -13 -31 0 -40 4 -41 18 -1 16 -2 16 -6 0 -5 -19 -23
-25 -23 -8 0 6 -5 10 -11 10 -5 0 -7 -4 -4 -10 3 -5 -1 -10 -9 -10 -19 0 -21
21 -4 38 7 7 9 12 4 12 -4 0 -14 -7 -23 -16 -9 -8 -22 -13 -29 -10 -8 3 -14 1
-14 -4 0 -6 10 -11 23 -11 18 -1 19 -2 3 -6 -10 -3 -23 0 -29 6 -14 14 -74 14
-82 1 -9 -15 -57 -12 -79 5 -11 8 -31 14 -45 14 -17 -1 -20 -3 -8 -6 32 -8 18
-20 -24 -20 -38 0 -40 1 -24 14 17 12 17 13 2 13 -10 0 -20 -7 -23 -15 -7 -18
-64 -15 -82 5 -12 13 -13 13 -8 -2 3 -12 0 -18 -9 -18 -8 0 -15 7 -15 15 0 8
-4 15 -10 15 -5 0 -7 -7 -4 -15 4 -9 0 -15 -10 -15 -10 0 -13 6 -9 18 5 14 3
14 -11 -3 -10 -11 -15 -14 -11 -7 7 13 -11 17 -19 4 -3 -5 -20 -9 -38 -9 -18
0 -25 2 -15 4 9 3 17 8 17 13 0 5 -15 4 -32 -2 -18 -6 -52 -12 -76 -13 -28 -2
-48 -9 -57 -21 -12 -16 -17 -17 -34 -7 -11 7 -27 10 -36 7 -18 -7 -20 7 -3 24
9 9 9 12 0 12 -7 0 -12 -5 -12 -10 0 -7 -6 -7 -19 0 -11 5 -29 10 -41 10 -12
0 -18 4 -15 10 4 6 -4 6 -21 0 -15 -6 -35 -8 -43 -4 -31 14 -49 13 -55 -1 -3
-10 0 -12 11 -8 11 4 14 2 9 -5 -4 -7 -30 -12 -57 -12 -36 0 -48 3 -43 12 5 7
0 9 -14 6 -12 -3 -23 -1 -24 4 -2 6 -13 8 -26 4 -12 -4 -20 -12 -17 -17 4 -5
-1 -9 -10 -9 -9 0 -13 4 -10 10 3 5 -14 10 -42 10 -26 1 -59 1 -72 2 -13 0
-35 -6 -48 -13 -20 -11 -31 -10 -69 4 -35 13 -50 14 -72 5 -39 -16 -72 -20
-72 -9 0 5 12 12 28 14 19 3 14 4 -15 6 -40 1 -58 -12 -30 -22 6 -2 -4 -4 -25
-3 -20 1 -34 4 -31 9 2 4 -2 10 -11 13 -23 9 -57 -14 -68 -47 -9 -26 -28 -41
-28 -21 0 4 -9 8 -20 8 -11 0 -20 -4 -20 -9 0 -6 -5 -6 -12 0 -7 5 -23 8 -35
7 -13 -1 -20 3 -17 11 6 15 36 15 47 0 4 -6 10 -5 16 4 6 10 10 10 16 1 6 -9
10 -9 16 1 6 10 9 11 9 2 0 -7 5 -13 10 -13 12 0 14 26 3 33 -5 2 -3 3 3 1 13
-3 34 15 34 29 0 5 -7 4 -15 -3 -8 -7 -23 -9 -37 -4 -13 4 -33 7 -45 5 -22 -2
-30 9 -16 22 11 12 24 8 17 -5z m-964 -198 c0 -5 -7 -10 -15 -10 -8 0 -15 -5
-15 -11 0 -12 43 -1 48 12 2 5 8 9 14 9 6 0 7 -7 4 -16 -3 -8 -2 -12 3 -9 5 3
12 1 16 -5 3 -5 -4 -11 -17 -12 -13 0 -3 -4 22 -8 40 -6 41 -7 12 -8 -20 -1
-31 -6 -27 -12 4 -6 11 -8 16 -5 5 4 9 2 9 -4 0 -5 -15 -12 -32 -14 l-33 -4
35 -1 c42 -2 75 28 65 59 -5 15 -2 19 15 19 16 0 20 5 16 15 -6 16 3 19 28 9
18 -7 5 -24 -29 -39 -19 -8 -18 -9 5 -13 24 -4 24 -5 5 -13 -16 -7 -13 -8 12
-6 18 2 30 0 27 -5 -3 -4 10 -8 28 -8 l33 1 -24 20 c-13 11 -30 18 -38 15 -15
-6 -13 13 4 31 15 17 44 16 77 -1 24 -12 25 -15 10 -27 -14 -11 -19 -10 -35
10 -10 12 -23 20 -29 16 -17 -11 -11 -20 25 -39 34 -18 50 -41 21 -30 -8 3
-17 1 -21 -5 -3 -6 1 -11 9 -11 20 0 21 -14 3 -32 -15 -14 -11 -42 4 -33 5 4
6 -1 3 -9 -7 -19 -21 -21 -27 -3 -2 6 -8 9 -12 4 -5 -4 6 -22 23 -40 18 -18
29 -36 26 -40 -4 -4 -2 -7 4 -7 6 0 14 5 17 10 3 6 1 10 -5 10 -6 0 -9 4 -6 9
3 5 -1 11 -9 15 -8 3 -12 12 -9 21 3 8 10 12 15 9 5 -3 7 -9 4 -14 -6 -10 42
-50 61 -50 8 0 14 -4 14 -10 0 -5 -7 -10 -15 -10 -8 0 -15 -7 -15 -15 0 -8 -9
-15 -20 -15 -26 0 -25 7 3 31 12 10 17 18 10 19 -6 0 -13 -5 -15 -10 -2 -6
-13 -12 -26 -13 -12 0 -22 -3 -22 -5 0 -8 29 -32 39 -32 6 0 11 -4 11 -10 0
-5 -5 -10 -11 -10 -5 0 -7 -4 -4 -10 3 -5 -1 -10 -10 -10 -9 0 -13 -5 -10 -10
9 -14 -13 -40 -33 -40 -8 0 -12 3 -9 7 4 3 2 12 -4 19 -6 8 -9 21 -5 29 8 22
-7 18 -22 -5 -10 -16 -10 -20 1 -20 8 0 14 -7 14 -15 0 -8 -4 -15 -9 -15 -4 0
0 -8 10 -18 18 -20 54 -12 49 11 -1 7 7 12 18 13 37 2 45 4 43 12 -3 7 5 12
22 12 5 0 7 -7 4 -15 -3 -8 -9 -14 -12 -13 -20 2 -30 -4 -35 -22 -3 -11 -1
-20 4 -20 5 0 9 4 9 9 0 4 12 6 26 3 l27 -5 -28 -14 c-17 -10 -42 -13 -69 -10
-22 3 -50 2 -61 -3 l-20 -9 20 -2 c11 -1 31 -1 45 0 23 2 24 1 8 -15 -9 -9
-33 -17 -54 -18 -48 -1 -56 -22 -9 -24 22 -1 42 5 53 16 9 9 26 16 36 14 14
-3 6 -10 -30 -27 -27 -12 -55 -20 -63 -17 -8 3 -12 1 -8 -5 4 -6 -23 -25 -64
-46 -39 -19 -65 -37 -57 -40 18 -8 -5 -24 -57 -39 -22 -7 -44 -18 -48 -25 -4
-7 -23 -20 -42 -29 -19 -9 -35 -20 -35 -24 0 -5 -10 -6 -22 -2 -21 5 -22 4 -9
-11 11 -15 11 -17 -2 -17 -8 0 -17 -8 -19 -18 -3 -10 -31 -35 -62 -56 -31 -20
-56 -41 -56 -47 0 -14 9 -11 43 13 29 20 30 20 18 3 -8 -11 -26 -32 -39 -47
-13 -14 -23 -29 -22 -32 3 -13 -53 -117 -70 -129 -9 -7 -22 -22 -29 -34 -10
-19 -9 -23 4 -23 8 0 15 6 15 14 0 16 18 31 26 23 4 -4 -28 -41 -95 -112 -11
-11 -32 -42 -46 -70 -45 -82 -49 -89 -82 -124 -18 -19 -30 -37 -27 -40 3 -3
11 2 18 12 21 27 29 20 12 -10 -24 -44 -59 -127 -61 -143 -4 -36 -18 -69 -32
-74 -8 -3 -11 -10 -8 -16 3 -5 -10 -40 -29 -76 -20 -36 -34 -69 -31 -74 10
-17 -65 -180 -84 -180 -11 0 -11 -3 -1 -15 10 -13 9 -19 -5 -35 -21 -23 -13
-39 10 -20 17 14 21 0 4 -17 -11 -11 -20 -95 -9 -88 3 2 7 -12 7 -31 1 -24 -3
-34 -14 -34 -9 0 -11 -5 -6 -12 10 -18 4 -50 -14 -70 -9 -10 -11 -18 -4 -22 5
-4 14 2 20 11 8 14 10 14 11 3 0 -8 -12 -25 -27 -37 -25 -22 -25 -23 -5 -23
26 0 30 -31 7 -50 -8 -7 -15 -17 -15 -23 0 -7 4 -7 12 1 19 19 27 14 22 -10
-17 -78 -17 -89 0 -82 13 5 15 2 9 -12 -3 -11 -11 -23 -17 -27 -8 -6 -7 -10 2
-14 7 -2 12 -22 12 -44 0 -22 4 -38 9 -34 6 3 5 -10 -1 -31 -10 -38 -3 -58 12
-34 8 13 10 12 10 -2 0 -10 -7 -18 -16 -18 -13 0 -14 -3 -5 -14 10 -11 8 -15
-6 -19 -16 -4 -15 -6 5 -12 12 -4 22 -15 22 -26 0 -23 -8 -23 -34 -4 -39 29
-40 14 -2 -20 21 -19 35 -35 30 -35 -4 0 3 -11 16 -25 13 -14 21 -28 17 -31
-3 -3 4 -16 16 -28 15 -14 21 -30 19 -50 -3 -20 0 -26 9 -21 8 6 10 -1 7 -23
-2 -17 -1 -29 3 -26 4 2 10 0 14 -6 3 -5 2 -10 -4 -10 -5 0 -8 -9 -6 -20 6
-30 -2 -24 -21 16 -10 20 -60 78 -111 130 -91 91 -96 94 -139 94 -36 0 -50 -5
-69 -26 -14 -15 -22 -30 -20 -35 3 -4 1 -10 -5 -14 -5 -3 -8 -34 -5 -72 3 -49
9 -70 24 -84 25 -23 32 -24 24 -2 -5 13 -2 15 11 10 14 -5 17 -3 12 8 -6 17 9
21 19 5 12 -19 26 -10 20 13 -5 17 -4 19 4 7 9 -13 12 -12 25 5 8 11 12 23 10
27 -2 4 7 18 21 32 20 20 27 22 37 12 7 -7 21 -15 31 -19 13 -5 16 -13 12 -27
-5 -15 -3 -18 9 -14 9 3 16 1 16 -4 0 -6 -8 -13 -17 -15 -14 -4 -12 -5 5 -6
23 -1 30 -25 11 -37 -8 -5 -7 -9 3 -15 9 -5 14 -19 13 -34 -3 -21 -1 -23 16
-15 15 9 17 8 12 -7 -4 -10 -11 -21 -17 -25 -5 -4 7 -5 27 -4 20 2 37 -1 37
-5 0 -5 -19 -9 -42 -10 -33 0 -38 -2 -23 -9 l20 -9 -20 -1 c-11 -2 -23 -2 -26
-2 -3 1 -15 -17 -25 -38 -11 -22 -24 -40 -29 -40 -6 0 -11 -22 -10 -50 0 -27
3 -50 8 -50 4 0 7 -7 7 -15 0 -8 6 -15 13 -16 8 0 8 -2 1 -5 -13 -5 26 -97 46
-109 6 -3 8 -10 6 -14 -6 -9 65 -87 76 -84 5 2 7 0 6 -5 -1 -4 4 -20 11 -36 6
-16 9 -37 5 -48 -6 -20 -24 -21 -81 -3 -15 5 -23 3 -23 -4 0 -6 6 -11 14 -11
8 0 16 -7 20 -15 3 -9 0 -15 -10 -15 -8 0 -12 -4 -9 -10 3 -5 17 -10 30 -10
31 0 53 -44 47 -95 -6 -49 -28 -85 -53 -85 -11 0 -19 -4 -19 -10 0 -5 -28 -8
-65 -7 -35 1 -61 -1 -57 -4 18 -16 111 -39 160 -39 44 0 53 -3 48 -15 -3 -8
-1 -15 4 -15 6 0 10 7 10 16 0 8 5 12 10 9 17 -10 11 -35 -7 -35 -15 0 -16 -2
-3 -10 12 -8 13 -13 3 -30 -18 -28 -16 -33 12 -26 14 4 25 2 25 -4 0 -5 -4
-10 -8 -10 -10 0 -11 -6 -16 -72 -3 -33 0 -48 8 -48 17 0 38 -42 38 -75 1 -18
5 -25 14 -21 8 3 14 1 14 -4 0 -6 -4 -10 -8 -10 -4 0 -8 -9 -8 -20 0 -11 4
-20 9 -20 5 0 7 -7 4 -15 -4 -8 -1 -17 4 -21 6 -3 8 -17 5 -30 -4 -15 -2 -24
5 -24 7 0 9 -9 6 -21 -3 -11 3 -41 14 -65 10 -25 14 -42 9 -39 -6 3 -10 1 -10
-4 0 -6 4 -11 8 -11 5 0 14 -17 20 -37 29 -104 31 -117 20 -130 -8 -10 -7 -17
7 -27 12 -8 16 -20 12 -34 -3 -12 -1 -24 4 -27 4 -3 8 -18 7 -33 -2 -47 22
-214 39 -277 19 -69 80 -177 138 -244 22 -25 45 -53 50 -62 85 -132 100 -148
245 -252 80 -57 197 -141 260 -188 143 -105 335 -220 443 -266 45 -19 96 -47
112 -64 17 -16 36 -29 41 -29 13 0 64 -53 64 -66 0 -6 19 -17 43 -25 l42 -14
-75 -7 c-72 -7 -76 -9 -112 -50 -55 -64 -104 -158 -87 -169 10 -6 8 -10 -9
-16 -13 -5 -31 -27 -42 -50 l-18 -40 28 10 c37 14 62 3 58 -25 -4 -32 -65 -49
-84 -23 -13 17 -14 17 -23 -6 -66 -168 -87 -226 -107 -296 -13 -45 -33 -103
-44 -128 -12 -29 -17 -52 -12 -59 5 -6 50 -90 100 -187 l92 -176 -226 -209
c-314 -291 -307 -284 -315 -284 -4 0 -9 10 -13 23 -3 12 -15 33 -27 45 -19 22
-22 22 -45 8 -34 -23 -41 -19 -15 8 l23 25 -31 -1 c-17 -1 -31 -5 -31 -10 0
-14 -43 -5 -48 10 -3 11 0 12 17 3 17 -10 21 -9 21 4 0 8 -7 15 -15 15 -8 0
-15 5 -15 11 0 7 -16 9 -45 5 -42 -6 -45 -5 -46 16 -1 18 -3 16 -10 -9 -5 -18
-14 -33 -20 -33 -7 0 -8 7 -4 18 3 9 7 19 8 22 1 3 -4 20 -10 38 -10 25 -17
32 -39 32 -32 0 -25 10 21 34 l30 16 -44 0 c-33 0 -42 3 -38 14 4 10 -2 16
-16 19 -14 3 -12 4 5 2 20 -1 33 6 43 22 9 13 11 23 6 23 -5 0 -11 -5 -13 -11
-2 -7 -9 -5 -17 5 -12 14 -10 16 10 16 21 1 22 2 7 11 -10 5 -18 17 -18 24 0
16 -12 20 -23 8 -4 -3 -2 -12 4 -20 9 -10 7 -13 -6 -13 -14 0 -16 6 -11 31 5
28 4 31 -14 26 -21 -5 -28 7 -10 18 6 3 10 15 10 26 0 16 -5 19 -20 14 -11 -3
-20 -2 -20 3 0 6 6 12 12 14 15 5 -13 38 -31 38 -14 0 -14 13 1 28 9 9 9 12
-1 12 -7 0 -10 7 -7 18 4 12 -3 22 -25 34 -17 10 -27 22 -24 28 3 5 2 10 -3
10 -9 0 -42 71 -42 88 1 4 10 -4 20 -17 23 -26 26 -15 8 26 -21 48 -48 82 -62
77 -10 -4 -13 3 -10 22 1 17 -4 32 -13 39 -11 8 -13 14 -5 19 8 5 5 18 -10 44
-12 20 -21 47 -20 59 1 17 -3 20 -21 16 -17 -4 -19 -2 -8 5 12 9 12 13 2 26
-8 9 -10 16 -5 16 4 0 -3 11 -16 25 -22 23 -22 25 -4 25 18 1 18 1 0 15 -10 7
-15 18 -12 23 3 6 -1 13 -10 16 -8 3 -12 10 -9 16 3 5 2 10 -3 10 -9 0 -25 40
-26 65 -1 6 -10 14 -21 19 -13 5 -16 10 -8 13 10 4 10 10 -2 26 -8 12 -15 29
-15 39 0 9 -6 21 -12 25 -18 11 -46 74 -43 95 2 11 -2 15 -11 11 -8 -3 -14 -1
-14 5 0 6 -3 17 -6 25 -3 10 2 17 13 20 16 4 16 5 -2 6 -11 1 -29 8 -40 17
-16 12 -17 17 -7 23 11 7 11 9 -1 14 -10 4 -14 14 -11 29 2 13 2 17 -2 11 -12
-26 -22 -12 -29 37 -6 42 -11 51 -31 56 -13 3 -22 11 -21 17 1 6 -14 14 -33
18 -23 4 -27 7 -12 8 13 0 20 6 17 11 -3 6 1 10 9 10 9 0 16 -4 16 -10 0 -5 4
-10 10 -10 18 0 -1 28 -23 34 -17 5 -19 8 -9 15 11 6 10 10 -4 15 -9 3 -14 9
-11 13 10 10 -44 34 -80 35 -18 1 -33 2 -33 4 0 1 13 12 30 24 22 16 28 17 24
6 -4 -11 0 -16 15 -16 28 0 28 31 -1 49 -16 10 -23 10 -26 2 -2 -6 -8 -9 -13
-5 -5 3 1 14 13 25 l23 20 -24 -7 c-29 -8 -19 13 13 26 19 8 19 9 -7 9 -24 1
-26 3 -17 20 5 11 14 30 19 43 8 22 7 24 -28 22 -20 -2 -26 0 -13 2 27 7 29
24 2 31 -20 5 -29 33 -10 33 6 0 10 -5 10 -11 0 -5 4 -7 10 -4 16 10 12 25 -7
25 -15 0 -16 2 -3 10 11 7 6 10 -20 10 -26 0 -31 3 -20 10 8 5 25 10 38 10 24
0 25 3 16 38 -5 17 -14 22 -41 22 -22 0 -32 4 -27 11 3 6 17 8 30 5 23 -6 24
-5 12 16 -7 13 -17 26 -21 29 -4 3 -7 10 -6 15 4 25 -3 34 -28 34 -20 0 -24 3
-14 9 11 7 10 11 -5 20 -17 11 -17 11 4 6 l22 -6 -22 38 c-12 21 -26 40 -30
41 -4 2 -8 8 -8 13 0 11 -40 70 -55 81 -14 11 -35 10 -35 -2 0 -5 8 -7 18 -4
14 5 15 4 2 -5 -8 -6 -26 -11 -40 -11 -20 0 -22 -2 -10 -10 12 -8 10 -10 -10
-10 -14 0 -32 -5 -40 -11 -12 -8 -10 -9 8 -4 13 4 22 2 22 -4 0 -6 -17 -11
-37 -11 -32 -1 -35 -2 -20 -11 10 -6 35 -8 55 -5 20 4 44 2 52 -4 11 -7 -3 -9
-47 -7 -35 1 -63 -1 -63 -5 0 -5 12 -9 28 -9 23 -2 24 -2 5 -6 -36 -7 -27 -23
15 -25 36 -1 36 -1 4 -5 -17 -2 -32 -8 -32 -13 0 -4 10 -6 23 -3 19 4 20 3 5
-7 -27 -17 -22 -38 11 -45 15 -3 32 -5 37 -4 5 1 20 0 34 -1 17 -2 10 -5 -20
-10 -39 -6 -40 -7 -12 -8 17 -1 32 -6 32 -11 0 -5 10 -12 22 -16 20 -7 18 -9
-15 -12 -33 -4 -37 -7 -26 -19 7 -8 8 -14 3 -13 -5 1 -17 1 -28 0 -16 -1 -17
-3 -5 -17 11 -14 10 -16 -6 -14 -51 6 -56 2 -51 -39 4 -35 2 -40 -17 -44 -12
-2 1 -5 30 -6 41 -1 51 -4 47 -15 -3 -8 2 -16 13 -19 10 -3 0 -6 -22 -7 -23
-1 -32 -4 -20 -7 36 -9 37 -20 5 -34 -29 -13 -31 -17 -29 -59 3 -73 1 -80 -23
-81 -13 0 -18 -3 -11 -5 7 -3 9 -12 6 -20 -3 -8 1 -14 11 -14 25 0 19 -20 -6
-21 -22 -1 -22 -1 2 -9 23 -7 23 -8 4 -9 -23 -1 -39 -26 -28 -43 3 -5 -4 -12
-16 -15 l-23 -6 24 -18 24 -19 -25 0 c-19 0 -22 -2 -10 -9 8 -6 17 -8 21 -5 4
2 9 -7 11 -21 3 -14 1 -25 -3 -25 -5 0 -8 -6 -7 -12 2 -7 -5 -12 -14 -10 -13
2 -16 -4 -15 -25 2 -22 -3 -29 -20 -31 -13 -2 -23 1 -23 7 0 6 -9 11 -20 11
-11 0 -20 -7 -20 -15 0 -8 7 -15 15 -15 22 0 18 -18 -4 -25 -12 -3 -22 -17
-24 -33 -4 -24 -4 -23 -6 6 0 19 -5 31 -11 27 -6 -3 -15 4 -20 17 -9 19 -10
17 -6 -17 2 -22 0 -49 -4 -60 -6 -15 -9 -5 -10 35 -2 30 -2 58 -1 62 0 4 -6 5
-15 1 -12 -5 -13 -7 -3 -14 22 -13 2 -21 -21 -9 -18 10 -24 9 -31 -1 -12 -20
-11 -53 3 -67 7 -7 9 -12 5 -12 -4 0 -9 0 -12 0 -3 0 -5 1 -5 3 2 5 -61 148
-104 240 -25 54 -46 102 -46 107 0 4 -4 10 -9 12 -11 4 -101 193 -101 212 0
13 -21 26 -41 26 -5 0 -18 -9 -30 -21 l-21 -21 8 33 c9 43 11 359 2 359 -4 0
-3 12 0 28 6 23 7 129 3 422 -1 30 0 108 2 173 1 64 -1 117 -5 117 -4 0 -5 7
-2 15 4 8 7 116 8 240 1 194 -1 225 -14 225 -13 1 -13 2 0 9 12 8 15 30 13
117 -2 94 -5 109 -20 116 -16 6 -16 7 2 7 17 1 20 7 19 34 -1 17 -3 34 -4 37
-1 3 -2 9 -1 14 1 6 3 109 3 230 1 135 5 226 11 234 8 10 7 16 -2 22 -8 4 -11
12 -7 18 3 6 1 12 -5 14 -9 3 -9 10 0 26 14 27 6 63 -14 56 -7 -3 -16 0 -21 7
-5 8 -3 10 5 5 14 -9 43 23 34 37 -4 6 -6 449 -3 545 0 1 0 5 -1 8 0 4 5 11
13 15 9 6 10 9 1 9 -17 0 -16 251 1 262 8 6 7 8 -1 8 -8 0 -13 13 -13 29 0 36
9 61 22 61 5 0 6 -4 3 -10 -3 -6 1 -7 9 -4 21 8 10 24 -15 24 -10 0 -19 5 -19
10 0 6 5 9 11 8 6 -2 12 7 14 19 1 14 -3 19 -12 16 -7 -3 -13 0 -13 6 0 6 9
11 20 11 11 0 20 5 20 11 0 5 -5 7 -11 3 -7 -4 -10 -1 -7 7 3 9 16 13 34 11
21 -2 25 0 15 7 -12 8 -12 12 2 25 8 9 23 16 31 16 9 0 16 7 16 15 0 8 4 15
10 15 6 0 6 9 0 25 -5 14 -6 25 -1 25 5 0 11 -10 14 -21 4 -15 11 -20 21 -16
10 4 16 1 16 -8 0 -8 -4 -16 -10 -16 -5 -1 -14 -2 -19 -3 -5 0 -13 -5 -18 -10
-5 -5 1 -7 14 -3 13 3 26 1 29 -4 9 -16 25 -10 22 8 -2 12 5 18 25 20 31 2 57
19 57 36 0 18 43 49 51 36 14 -24 29 26 16 55 -13 28 -22 32 -33 14 -4 -6 -3
-8 3 -5 6 4 14 0 17 -9 10 -26 6 -40 -5 -21 -7 12 -17 16 -30 12 -24 -8 -24 2
-2 27 15 17 15 21 3 29 -13 8 -13 10 0 19 9 6 10 10 3 10 -6 0 -18 -7 -27 -15
-17 -17 -42 -20 -51 -4 -5 6 -12 4 -22 -8 -8 -10 -12 -12 -8 -5 9 17 -13 42
-31 35 -8 -3 -15 -13 -15 -22 -1 -14 -2 -14 -6 2 -2 9 -9 17 -14 17 -5 0 -7
-11 -3 -25 6 -25 -8 -35 -21 -15 -3 6 -12 10 -18 9 -9 0 -9 -2 1 -6 13 -5 17
-24 5 -22 -22 4 -43 -2 -38 -10 3 -5 22 -8 43 -5 33 4 34 3 10 -5 -15 -5 -35
-16 -44 -25 -18 -18 -30 -20 -39 -6 -3 6 3 10 14 10 12 0 21 5 21 10 0 16 -40
12 -46 -5 -4 -8 -11 -15 -16 -15 -7 0 -7 5 -1 13 7 10 9 49 4 90 -1 4 -9 8
-18 8 -15 1 -15 2 -2 6 13 3 15 43 16 327 0 178 3 336 7 350 3 14 3 26 -1 26
-5 0 -7 15 -6 32 1 18 2 41 2 51 1 10 9 17 22 17 11 0 17 5 14 10 -3 6 -1 10
5 10 6 0 9 4 6 9 -3 5 8 11 25 13 28 4 30 3 24 -24 -5 -22 -3 -28 10 -28 11 0
15 5 11 15 -3 8 -1 15 4 15 6 0 9 3 9 8 -4 19 27 72 39 67 7 -2 10 0 7 5 -3 6
-15 10 -26 10 -11 0 -17 -5 -14 -10 3 -6 0 -13 -9 -16 -9 -3 -12 -12 -9 -22 5
-12 2 -14 -11 -9 -10 4 -33 7 -52 7 -25 0 -34 4 -34 17 0 13 3 14 12 5 31 -31
100 -2 80 34 -9 16 -10 15 -16 -4 -4 -12 -16 -22 -26 -22 -16 0 -15 4 8 28 24
23 29 25 39 12 11 -13 15 -13 27 4 20 25 17 108 -4 113 -12 4 -13 3 -1 -5 9
-7 11 -16 6 -28 -8 -18 -8 -18 -12 -1 -3 9 -13 17 -24 17 -21 0 -26 -16 -6
-23 7 -2 8 -8 3 -13 -5 -5 -10 -4 -13 2 -2 7 -13 10 -24 7 -11 -3 -29 2 -41
13 -20 18 -21 18 -15 1 4 -10 7 -23 7 -28 0 -5 7 -9 15 -9 8 0 15 -4 15 -8 0
-4 -16 -6 -36 -4 -23 3 -31 7 -24 12 7 4 10 17 7 29 -3 12 -1 21 4 21 4 0 6 7
3 15 -4 8 -1 15 6 15 6 0 8 -4 5 -10 -3 -5 3 -10 13 -10 11 0 22 -7 26 -15 8
-21 28 -19 25 3 -4 44 1 61 17 55 13 -5 13 -7 2 -14 -11 -7 -10 -11 2 -19 10
-6 16 -6 18 0 5 13 52 13 52 0 0 -5 5 -10 11 -10 8 0 8 5 -1 15 -7 8 -18 15
-25 15 -7 0 -15 10 -19 23 -9 35 -7 47 9 47 8 0 14 6 13 13 -2 6 2 11 9 10 7
-2 10 4 7 12 -4 10 0 15 11 15 13 0 15 3 6 13 -6 8 -8 17 -4 20 3 4 1 7 -6 7
-8 0 -10 7 -6 20 3 11 3 25 -2 32 -20 32 -6 55 25 43 15 -6 15 -8 -3 -22 -15
-12 -16 -14 -3 -10 13 4 15 2 11 -10 -4 -10 -2 -14 7 -11 20 6 19 68 -1 68 -9
0 -20 7 -23 17 -6 14 -9 14 -27 -5 -21 -23 -39 -29 -39 -12 0 6 7 10 16 10 8
0 13 3 11 8 -3 4 4 16 14 26 11 11 19 14 19 8 0 -7 9 -12 21 -12 11 0 17 5 14
10 -9 14 4 12 19 -3 7 -7 11 -19 9 -27 -2 -8 2 -6 9 5 7 11 13 22 14 25 8 38
34 53 34 20 0 -11 -4 -20 -10 -20 -5 0 -10 -5 -10 -10 0 -10 70 -6 113 6 9 3
17 1 17 -5 0 -6 -9 -11 -20 -11 -11 0 -20 -4 -20 -10 0 -5 14 -10 31 -10 17 0
28 -4 24 -10 -4 -6 7 -10 24 -10 23 0 31 -5 32 -17 0 -12 2 -13 6 -5 3 7 -1
20 -8 28 -11 14 -6 15 42 14 70 -2 79 -1 52 10 -23 9 -22 35 1 53 7 6 4 7 -6
3 -10 -3 -20 -1 -23 4 -5 9 15 15 38 11 11 -2 9 17 -3 24 -6 3 -10 2 -10 -4 0
-6 -7 -8 -15 -4 -11 4 -19 -4 -27 -24 -9 -24 -17 -30 -42 -31 -17 0 -34 5 -38
11 -4 7 -13 12 -20 12 -8 0 -13 11 -12 28 1 20 -3 27 -17 27 -11 0 -19 -6 -19
-12 0 -9 -3 -9 -8 -2 -11 16 -37 23 -53 13 -10 -6 -6 -9 15 -9 36 0 32 -5 -11
-13 -36 -7 -42 3 -18 27 8 8 15 17 15 20 0 11 -18 6 -32 -7 -14 -14 -61 -17
-74 -4 -4 4 7 7 25 7 28 0 31 2 21 19 -6 11 -6 22 -1 25 5 3 11 -4 14 -15 5
-17 9 -19 26 -9 15 8 21 21 21 45 0 43 19 46 43 6 17 -29 17 -30 -5 -50 -18
-17 -19 -21 -5 -21 14 0 30 14 33 30 4 22 19 40 33 39 10 0 11 -2 4 -6 -10 -3
-10 -10 -2 -25 9 -16 13 -18 19 -7 7 10 11 10 24 0 9 -8 16 -9 16 -3 0 6 -4
12 -9 14 -4 2 -5 12 0 23 6 17 8 17 8 3 1 -12 6 -15 18 -11 13 5 15 3 9 -13
-6 -15 -5 -17 5 -6 7 6 17 12 22 12 4 0 5 -6 1 -12 -4 -7 3 -3 15 10 12 12 28
22 36 22 8 0 15 5 15 11 0 7 -9 9 -24 5 -27 -7 -57 17 -34 28 7 3 1 4 -15 2
-22 -3 -25 -1 -16 10 9 11 8 14 -5 14 -9 0 -16 -7 -16 -15 0 -8 -4 -15 -10
-15 -5 0 -10 7 -10 15 0 8 5 15 11 15 5 0 7 5 4 11 -4 6 0 9 11 7 11 -2 18 2
17 10 -2 7 8 12 23 12 19 0 25 -4 21 -14 -3 -8 1 -20 9 -27 12 -10 15 -10 12
1 -2 7 2 14 9 17 6 2 13 -3 15 -12 2 -13 5 -12 16 5 11 18 10 20 -9 20 -11 0
-18 4 -14 10 3 5 12 7 20 3 11 -4 13 -1 9 11 -5 12 0 16 22 15 16 0 23 -3 17
-6 -7 -2 -13 -14 -13 -25 0 -12 -8 -27 -17 -34 -10 -7 -14 -16 -10 -21 5 -4
15 1 23 11 18 25 32 12 16 -14 -10 -17 -10 -20 3 -20 8 0 15 6 15 14 0 15 40
60 57 63 6 1 9 -6 6 -17 -3 -11 -12 -20 -20 -20 -8 0 -11 -5 -7 -11 3 -6 15
-9 25 -6 21 6 22 5 13 -17 -3 -9 -15 -16 -26 -16 -18 0 -18 -2 -4 -22 21 -29
22 -65 2 -46 -7 7 -11 19 -9 25 3 7 1 13 -5 13 -5 0 -12 -7 -16 -15 -10 -27
-44 -18 -51 15 -4 16 -6 33 -5 36 3 10 -23 23 -33 17 -5 -3 -3 -9 4 -14 11 -7
12 -12 1 -29 -11 -18 -10 -20 10 -21 16 -1 18 -3 7 -6 -10 -2 -20 -14 -24 -26
-6 -20 -7 -19 -16 12 -8 27 -13 31 -22 21 -9 -10 -9 -14 1 -17 6 -3 12 -10 12
-16 0 -5 -3 -7 -7 -4 -3 4 -12 2 -20 -4 -11 -10 -8 -14 13 -25 19 -10 30 -11
39 -4 9 8 15 8 20 0 3 -6 10 -8 14 -6 18 12 29 -10 16 -33 l-13 -24 -6 21 c-4
12 -12 22 -18 22 -6 0 -6 -6 2 -15 7 -8 9 -15 4 -15 -5 0 -2 -5 6 -10 15 -9
50 18 50 40 0 5 8 10 18 9 13 0 14 -2 2 -6 -10 -4 -4 -10 20 -19 l35 -12 -37
-1 c-27 -1 -38 -5 -38 -16 0 -8 -4 -15 -10 -15 -5 0 -10 -4 -10 -9 0 -4 11 -6
25 -3 20 3 23 7 15 18 -9 10 -2 12 39 11 28 -1 51 -3 51 -5 0 -12 -23 -42 -32
-42 -7 0 -6 5 2 15 11 13 8 15 -14 15 -14 0 -26 -5 -26 -11 0 -5 5 -7 10 -4 5
3 10 1 10 -4 0 -6 -9 -11 -20 -11 -23 0 -27 -15 -5 -24 8 -3 15 -1 15 4 0 6
16 10 35 10 24 0 37 -6 45 -20 6 -12 7 -20 1 -20 -5 0 -11 5 -13 10 -2 6 -9 1
-15 -9 -8 -13 -9 -22 -3 -26 6 -4 9 -1 8 6 -2 9 7 12 29 11 27 -3 31 -1 26 17
-3 12 -12 21 -19 21 -8 0 -14 5 -14 11 0 6 9 9 19 6 25 -6 35 17 15 34 -11 9
-12 15 -3 25 9 11 8 18 -2 31 -13 16 -13 16 11 0 30 -21 41 -22 34 -3 -4 9 3
14 22 14 21 0 24 -2 11 -10 -22 -12 -10 -38 17 -37 16 1 17 2 4 6 -23 6 -22 9
2 40 11 14 20 21 20 14 0 -6 7 -11 15 -11 8 0 15 5 15 10 0 6 7 10 15 10 11 0
13 8 9 33 -5 29 -4 31 9 14 8 -10 23 -17 34 -15 12 2 18 -3 17 -14 -1 -10 3
-18 8 -18 5 0 8 10 6 23 -2 16 -9 21 -26 20 -12 -2 -22 1 -22 6 0 5 12 8 27 6
15 -1 33 -1 40 2 15 6 18 43 3 43 -5 0 -10 -7 -10 -15 0 -8 -7 -15 -15 -15 -8
0 -12 6 -9 14 4 9 -3 16 -18 19 -13 2 -2 5 24 6 33 1 50 6 57 18 14 25 25 9
11 -16 -9 -17 -8 -21 5 -21 9 0 13 5 10 10 -3 6 -2 10 4 10 5 0 14 12 19 28
l10 27 1 -27 c1 -21 6 -28 22 -28 11 0 18 4 15 9 -7 11 32 47 41 38 3 -4 2 -7
-4 -7 -6 0 -13 -9 -16 -20 -4 -16 0 -20 20 -20 18 0 24 -4 20 -14 -3 -8 -1
-17 6 -20 7 -2 4 -5 -5 -5 -10 -1 -18 -5 -18 -10 0 -4 11 -6 24 -4 22 5 23 8
13 25 -9 16 -9 22 1 25 6 3 12 12 11 21 0 11 -2 12 -6 5 -2 -7 -9 -13 -14 -13
-11 0 -12 30 -1 31 4 0 18 2 32 4 14 2 20 1 13 -1 -7 -3 -10 -11 -7 -19 4 -10
10 -9 25 6 14 14 27 18 41 13 18 -5 20 -3 14 19 -5 22 -3 25 19 23 28 -1 30
-8 14 -38 -6 -11 -8 -22 -5 -25 3 -3 9 3 13 13 4 10 14 26 22 34 16 16 16 19
-5 -34 -5 -14 -4 -17 4 -12 8 5 12 -1 12 -18 0 -31 19 -33 43 -5 18 20 18 21
-2 14 -10 -3 -22 -1 -26 5 -4 6 10 10 37 11 24 1 35 3 25 6 -9 2 -15 8 -12 13
3 5 13 6 23 3 15 -6 15 -5 3 10 -12 15 -11 17 5 18 11 1 25 1 33 0 7 -2 11 4
8 11 -2 7 -9 12 -14 11 -5 -1 -10 4 -10 12 0 7 8 13 18 12 10 -1 15 -7 11 -16
-4 -11 -1 -13 12 -8 14 5 17 3 12 -8 -3 -8 -1 -15 4 -15 6 0 10 7 10 15 0 8 5
15 10 15 6 0 10 6 10 14 0 8 6 16 13 19 6 2 9 8 4 13 -4 4 -15 -3 -24 -15 -12
-18 -17 -20 -24 -10 -5 8 -9 19 -9 24 0 6 4 4 9 -3 7 -11 9 -11 14 2 4 9 2 16
-3 16 -6 0 -10 5 -10 10 0 13 49 5 64 -10 5 -5 14 -10 20 -10 5 0 1 7 -10 15
-22 17 -12 20 16 5 16 -8 18 -8 14 4 -3 9 -9 14 -12 13 -4 -1 -8 3 -10 8 -2 6
-13 20 -24 32 -12 13 -18 26 -14 30 4 4 12 0 17 -10 11 -19 39 -24 39 -6 0 5
-4 8 -9 4 -5 -3 -12 -1 -16 5 -3 5 -1 10 4 10 6 0 11 7 11 16 0 9 5 12 12 8 8
-5 9 -2 5 9 -5 13 -1 17 14 17 11 0 17 5 14 10 -4 6 -15 8 -26 5 -11 -4 -19
-2 -19 5 0 15 33 26 38 12 6 -20 20 -13 24 11 2 14 9 22 20 21 23 -2 18 20 -7
27 -17 5 -14 8 15 17 34 10 32 13 -12 16 -12 0 -23 7 -26 15 -3 9 1 11 17 6
15 -4 21 -2 21 9 0 8 8 20 18 25 16 10 16 10 0 11 -10 0 -18 5 -18 11 0 7 10
9 25 7 14 -3 28 -1 31 3 3 5 -2 9 -10 9 -28 0 -17 20 12 21 27 2 27 2 2 7 -19
5 -14 8 25 13 28 3 51 7 53 7 1 1 2 -2 2 -8z m1785 -157 c-4 -18 -2 -24 7 -20
8 2 12 16 10 31 -2 18 1 25 7 21 6 -3 11 -17 11 -30 0 -18 4 -23 15 -19 8 4
15 1 15 -5 0 -6 -7 -11 -16 -11 -8 0 -13 -4 -10 -9 9 -14 -4 -41 -19 -41 -8 0
-17 -5 -21 -12 -5 -7 -2 -9 8 -5 22 8 30 -3 16 -20 -8 -11 -8 -17 2 -26 10 -9
11 -9 6 1 -4 7 -1 15 7 18 8 3 13 16 11 30 -2 18 2 24 11 20 8 -3 18 7 26 26
l12 30 13 -48 c6 -26 10 -54 7 -61 -4 -10 2 -12 25 -8 21 3 32 0 36 -10 3 -8
1 -15 -5 -15 -6 0 -7 -5 -3 -12 6 -9 9 -9 12 0 6 20 22 14 22 -9 0 -11 4 -18
9 -15 5 3 11 -7 14 -22 7 -33 53 -42 62 -11 4 10 11 19 16 19 5 0 9 5 9 11 0
5 -4 8 -9 4 -19 -11 -20 13 -1 30 19 17 19 16 16 -34 -1 -29 1 -54 6 -57 4 -3
8 2 8 10 0 9 5 16 10 16 6 0 10 -4 10 -10 0 -5 11 -10 25 -10 13 0 29 -8 34
-17 9 -16 12 -16 21 -3 13 21 13 26 -7 46 -13 13 -14 19 -5 22 6 2 12 10 12
17 0 19 39 45 58 38 12 -5 14 -1 9 18 -4 13 -7 30 -7 37 0 6 -4 12 -10 12 -5
0 -10 -11 -10 -24 0 -35 -16 -41 -42 -17 -18 18 -19 21 -5 21 9 0 17 -4 17
-10 0 -5 5 -10 10 -10 25 0 7 28 -22 35 l-33 8 40 7 c22 4 33 8 25 9 -10 2 -7
5 8 11 24 10 29 34 10 46 -6 4 -17 -1 -24 -10 -8 -11 -14 -13 -19 -7 -3 6 -1
11 5 11 6 0 9 10 7 23 -2 12 -2 16 0 9 4 -11 8 -11 21 0 12 10 14 10 8 1 -4
-8 -1 -13 9 -13 9 0 14 -4 10 -9 -7 -12 40 -63 49 -53 5 4 6 -2 4 -13 -2 -13
3 -20 17 -22 l20 -3 -20 10 c-18 9 -18 10 5 8 37 -3 41 17 10 50 -12 12 -17
22 -13 23 4 0 16 2 26 4 10 2 27 -5 38 -16 19 -19 19 -19 -3 -19 -21 -1 -22
-2 -6 -14 10 -7 15 -16 11 -19 -3 -4 1 -7 11 -7 9 0 19 -7 22 -15 7 -17 34
-21 34 -5 0 6 -7 10 -15 10 -8 0 -15 8 -14 18 0 10 3 12 6 5 2 -7 10 -13 18
-13 27 0 38 -27 22 -59 -20 -41 -9 -48 13 -9 22 42 36 45 49 11 10 -27 11 -27
5 7 -4 32 -4 33 10 17 9 -12 15 -14 18 -6 2 7 14 13 26 14 22 2 27 -9 24 -48
-1 -11 3 -15 9 -12 5 4 19 -1 29 -10 14 -12 20 -13 26 -4 4 7 3 10 -4 5 -15
-9 -54 44 -50 68 3 19 10 21 66 22 62 1 79 -10 19 -12 -62 -3 -67 -4 -67 -19
0 -8 5 -15 11 -15 5 0 7 5 4 10 -4 6 18 10 58 10 53 0 67 -4 83 -22 17 -19 17
-21 2 -15 -10 3 -20 2 -23 -3 -4 -6 1 -10 9 -10 9 0 16 -6 17 -12 0 -7 5 -3
12 10 7 16 17 22 29 19 10 -3 18 0 18 6 0 6 2 8 5 5 11 -10 -7 -37 -21 -31
-10 4 -12 0 -8 -11 3 -9 13 -16 21 -16 10 0 12 -6 8 -19 -3 -11 -1 -23 6 -26
8 -6 10 4 7 33 -2 31 -1 38 9 31 6 -6 10 -16 7 -23 -3 -8 4 -16 15 -19 11 -2
22 1 25 8 9 23 54 24 71 1 11 -15 13 -16 9 -3 -4 11 -2 16 7 14 8 -2 11 -2 6
0 -4 3 -4 9 -1 14 3 6 0 16 -6 24 -10 12 -9 15 4 15 9 0 19 7 22 15 7 16 24
21 24 6 0 -5 -7 -16 -15 -25 -10 -9 -13 -24 -10 -39 4 -16 1 -30 -10 -41 -15
-15 -15 -16 0 -16 9 0 13 -5 9 -11 -4 -7 -1 -10 7 -7 8 3 22 1 31 -3 10 -5 19
-5 22 0 3 5 -8 11 -24 15 -18 3 -30 12 -30 21 0 19 7 19 26 0 20 -19 44 -19
44 0 0 9 6 12 16 8 10 -4 17 2 21 17 6 22 7 22 20 5 8 -12 13 -14 13 -6 0 10
9 12 30 8 34 -7 38 0 13 19 -16 12 -15 13 15 14 18 0 31 -4 28 -9 -3 -5 0 -21
8 -35 11 -23 15 -24 26 -11 7 8 16 12 21 9 9 -5 13 9 10 34 -1 6 8 12 20 12
21 0 22 -1 4 -20 -14 -15 -15 -23 -6 -34 13 -16 61 -28 61 -15 0 5 -6 9 -14 9
-19 0 -28 26 -12 39 16 13 56 3 56 -15 0 -8 5 -14 10 -14 17 0 11 25 -10 48
-12 12 -16 22 -10 22 6 0 13 -6 16 -14 3 -8 16 -13 30 -12 28 1 33 16 5 16
-10 0 -21 7 -25 15 -3 8 -12 12 -20 9 -8 -3 -17 -1 -21 5 -4 7 6 11 25 11 27
0 31 3 25 18 -5 13 -3 14 6 5 6 -6 18 -9 25 -6 8 3 14 0 14 -6 0 -6 16 -11 35
-11 26 0 35 4 35 17 0 12 3 14 11 6 13 -13 4 -33 -15 -33 -8 0 -16 -9 -19 -20
-3 -11 0 -20 6 -20 8 0 8 -3 0 -11 -18 -18 -35 -1 -23 21 6 10 7 21 3 23 -5 2
-18 -15 -30 -39 -18 -35 -19 -44 -8 -44 8 0 15 5 15 10 0 6 11 10 25 10 14 0
28 7 31 15 8 20 24 19 24 -2 0 -15 2 -14 15 3 11 15 15 16 16 4 0 -8 2 -25 3
-37 2 -14 -3 -23 -10 -23 -8 0 -11 6 -8 15 5 11 -1 15 -20 15 -14 0 -26 -4
-26 -10 0 -5 6 -10 14 -10 10 0 13 -8 11 -22 -4 -16 -2 -19 7 -10 15 15 32 16
23 2 -3 -5 -2 -10 4 -10 5 0 11 5 13 12 7 21 37 1 31 -21 -6 -22 -19 -28 -25
-11 -1 5 -11 -4 -20 -20 -9 -17 -13 -30 -9 -30 4 0 12 9 17 20 9 19 9 19 20
-4 10 -21 9 -24 -5 -19 -11 3 -12 2 -4 -4 6 -4 15 -21 18 -36 4 -15 11 -27 16
-27 6 0 5 8 -1 19 -12 24 -13 31 -1 31 5 0 13 -9 16 -21 5 -16 10 -18 18 -10
9 9 8 14 -3 21 -16 10 -12 11 30 14 21 1 25 -3 24 -26 -1 -16 3 -28 9 -28 6 0
8 -3 5 -6 -4 -3 -16 -1 -27 6 -14 7 -21 7 -21 0 0 -5 -8 -10 -17 -10 -17 -1
-17 -1 0 -14 11 -8 15 -21 12 -32 -4 -11 1 -7 10 9 17 29 35 36 35 12 0 -8 6
-15 13 -15 19 0 60 -46 53 -59 -4 -5 -2 -12 4 -16 5 -3 13 12 16 37 4 24 9 37
12 29 4 -11 6 -11 13 0 8 12 10 12 18 0 7 -11 11 -9 21 8 8 17 8 26 0 36 -9
10 -7 14 7 17 12 2 14 6 6 11 -6 4 -18 1 -26 -7 -8 -8 -19 -11 -26 -6 -9 5
-10 10 -2 14 7 5 7 14 -1 32 -10 20 -9 27 2 34 8 5 17 6 20 3 3 -3 -1 -8 -7
-10 -7 -3 -13 -9 -13 -14 0 -6 5 -7 11 -4 6 4 9 0 7 -11 -3 -17 4 -19 57 -17
52 1 58 0 42 -12 -15 -11 -17 -17 -7 -34 6 -12 14 -20 18 -18 4 2 15 -4 25
-15 9 -10 12 -18 6 -18 -5 0 -7 -4 -4 -10 3 -5 -1 -10 -9 -10 -9 0 -15 3 -14
8 2 4 -1 9 -7 12 -5 3 -11 -3 -13 -12 -3 -14 3 -18 27 -18 17 0 31 5 31 10 0
17 17 11 22 -8 4 -14 -1 -18 -21 -18 -62 -1 -70 -4 -64 -20 4 -11 9 -12 16 -5
14 14 67 14 67 1 0 -5 -4 -10 -10 -10 -5 0 -10 -7 -10 -16 0 -14 2 -15 18 -3
15 12 16 12 6 -1 -20 -27 -24 -49 -8 -43 7 3 14 0 14 -6 0 -6 -4 -11 -9 -11
-5 0 -11 -9 -14 -21 -4 -14 -2 -19 8 -15 7 2 15 -4 18 -16 7 -27 -2 -50 -18
-44 -10 3 -10 -2 1 -22 8 -17 12 -52 10 -90 -2 -49 1 -62 12 -62 11 0 12 -3 3
-14 -13 -16 -21 -206 -8 -206 5 0 5 -6 0 -12 -4 -7 -8 -53 -8 -103 0 -81 2
-91 20 -97 l20 -6 -20 -1 c-18 -1 -20 -7 -17 -51 2 -29 9 -50 15 -50 8 0 8 -3
-1 -8 -16 -10 -15 48 -13 -837 1 -603 2 -685 11 -685 5 0 11 12 11 28 2 27 2
27 6 2 3 -14 10 -28 17 -32 8 -6 8 -8 -1 -8 -7 0 -10 -7 -7 -15 4 -8 1 -15 -5
-15 -6 0 -11 7 -11 16 0 8 -4 13 -9 10 -5 -3 -9 -94 -10 -203 -1 -151 1 -198
11 -205 10 -6 10 -8 1 -8 -7 0 -13 -11 -13 -25 0 -14 6 -25 13 -26 10 0 10 -2
0 -6 -7 -2 -13 -20 -13 -40 0 -30 2 -34 21 -28 15 5 19 4 15 -4 -4 -6 -13 -11
-20 -11 -10 0 -13 -28 -14 -115 0 -63 3 -114 7 -113 18 2 21 -3 9 -16 -11 -11
-13 -60 -12 -242 2 -126 3 -640 3 -1142 1 -501 5 -912 9 -912 4 0 7 -25 7 -55
0 -30 -3 -55 -7 -55 -5 0 -8 25 -8 55 0 38 -4 55 -13 55 -7 0 -46 21 -87 46
-118 73 -228 134 -241 134 -7 0 -2 -11 11 -25 21 -23 23 -30 17 -102 -3 -43
-13 -109 -22 -148 -9 -38 -18 -77 -20 -85 -14 -69 -78 -326 -82 -330 -5 -4 -2
16 13 114 3 16 9 36 13 45 16 31 23 111 10 111 -9 0 -8 4 3 13 19 14 30 57 16
57 -6 0 -5 6 2 15 10 12 10 15 -3 15 -8 0 -22 3 -31 6 -9 3 -16 1 -16 -5 0 -6
7 -11 16 -11 14 0 15 -2 3 -17 -12 -15 -12 -16 4 -10 9 3 17 2 17 -3 0 -6 -8
-10 -17 -11 -11 0 -13 -3 -5 -6 20 -8 14 -18 -13 -21 -23 -2 -24 0 -13 18 10
16 10 22 1 28 -16 10 -6 49 14 56 9 4 21 2 28 -4 13 -11 45 -4 45 10 0 5 -4
12 -10 15 -5 3 -10 1 -10 -4 0 -6 -7 -11 -16 -11 -8 0 -13 4 -10 9 7 11 -22
23 -35 15 -5 -3 -7 -10 -4 -15 4 -5 2 -9 -3 -9 -6 0 -12 7 -16 15 -6 17 -58
19 -91 5 -15 -7 -7 -9 28 -6 26 1 50 -1 53 -6 3 -4 -5 -8 -18 -8 -17 0 -20 -2
-9 -9 8 -5 20 -7 28 -4 7 3 13 0 13 -6 0 -6 -11 -11 -25 -11 -14 0 -24 -3 -22
-8 1 -4 -3 -8 -8 -9 -6 -2 -10 1 -10 6 0 5 -3 13 -7 17 -7 7 -12 -25 -9 -53 1
-7 -5 -13 -14 -13 -8 0 -15 7 -15 15 0 16 -42 31 -59 21 -5 -4 -12 -2 -16 4
-4 6 5 10 19 10 30 0 26 25 -5 35 -11 4 -17 11 -13 16 3 5 9 7 14 4 5 -3 12 7
16 22 4 15 12 31 17 35 6 3 -6 5 -27 3 -56 -5 -90 14 -50 29 8 3 12 2 9 -4
-10 -16 41 -12 55 5 16 19 9 49 -14 53 -11 3 -16 0 -11 -7 3 -6 11 -9 16 -6 5
4 9 -3 9 -14 0 -11 -4 -23 -10 -26 -5 -3 -10 1 -10 9 0 9 -7 16 -15 16 -9 0
-12 6 -9 15 5 11 -2 15 -27 15 -18 0 -29 3 -26 7 4 3 -1 12 -11 20 -15 13 -13
14 21 9 31 -4 38 -2 33 9 -3 9 1 15 9 15 8 0 15 -7 15 -15 0 -26 15 -16 16 10
2 20 -3 25 -21 25 -13 0 -32 -8 -41 -17 -17 -17 -18 -17 -11 0 5 13 1 17 -16
18 -20 1 -20 2 -2 6 34 8 40 22 19 39 -16 13 -16 15 -2 10 10 -3 20 -1 23 4 4
6 -6 10 -20 10 -20 0 -26 4 -21 15 4 10 -1 15 -15 15 -11 0 -17 -4 -14 -10 3
-5 2 -10 -3 -10 -6 0 -12 7 -16 15 -4 10 1 15 17 15 19 1 18 3 -8 15 l-30 15
40 -3 c34 -2 40 1 40 18 0 39 -35 61 -95 59 -30 -1 -41 0 -23 3 29 4 62 28 51
38 -2 2 -17 -2 -32 -10 -19 -10 -33 -12 -45 -5 -13 8 -11 9 11 10 20 0 26 4
22 15 -4 8 -1 15 6 15 6 0 8 5 5 10 -4 7 -13 7 -26 0 -24 -14 -39 -5 -78 44
-22 27 -31 33 -31 21 0 -14 -3 -15 -15 -5 -12 10 -13 16 -4 26 16 20 -10 19
-39 -2 -12 -8 -22 -11 -22 -5 0 5 6 11 12 13 9 3 8 9 -4 21 -22 23 -27 21 -20
-5 5 -20 3 -21 -10 -11 -8 7 -18 10 -21 6 -4 -3 -7 -1 -7 5 0 7 -4 12 -9 12
-5 0 -7 -26 -4 -58 7 -76 -19 -255 -68 -472 -22 -96 -49 -215 -60 -265 -11
-49 -27 -119 -35 -155 -8 -36 -30 -113 -49 -172 -19 -59 -35 -112 -35 -118 0
-7 -6 -26 -14 -43 -8 -18 -26 -66 -41 -107 -15 -41 -31 -84 -36 -95 -26 -58
-30 -78 -17 -87 9 -5 6 -8 -9 -8 -17 0 -23 -6 -23 -23 0 -13 -5 -28 -10 -33
-6 -6 -12 -25 -13 -42 -1 -18 -9 -35 -17 -38 -12 -5 -11 -8 5 -14 14 -6 16 -9
4 -9 -21 -1 -21 -70 1 -72 8 -1 4 -4 -10 -8 -35 -10 -40 -41 -6 -41 14 0 26
-5 26 -11 0 -7 -10 -9 -25 -7 -14 3 -28 1 -31 -3 -3 -5 4 -9 15 -9 13 0 19 -5
15 -14 -3 -8 2 -16 13 -19 10 -3 3 -6 -17 -7 -19 -1 -27 -4 -17 -7 9 -2 17 -8
17 -13 0 -5 10 -12 23 -16 l22 -8 -25 -7 c-24 -7 -24 -7 -2 -8 12 -1 22 -3 22
-5 0 -2 3 -11 6 -19 4 -12 0 -14 -18 -10 -18 4 -20 3 -8 -6 10 -7 11 -11 3
-11 -21 0 -28 4 -28 20 0 8 -11 17 -25 18 -21 3 -22 2 -11 -12 7 -8 10 -19 7
-25 -4 -5 3 -12 14 -16 24 -8 25 -15 5 -41 -17 -23 -19 -34 -5 -34 6 0 10 6
10 13 0 7 9 18 20 25 11 7 20 20 20 30 0 13 2 14 9 3 6 -10 14 -3 32 28 12 23
27 41 32 41 6 0 4 -8 -4 -17 -23 -29 -39 -62 -39 -80 0 -14 -2 -15 -9 -4 -6 9
-11 10 -15 2 -4 -6 -2 -11 4 -11 6 0 8 -6 5 -12 -4 -7 6 0 21 17 15 16 32 30
38 30 6 1 31 11 56 23 25 12 53 22 62 22 9 0 20 5 24 11 4 7 0 9 -14 5 -11 -4
-23 -3 -25 2 -9 13 71 8 85 -6 9 -9 9 -12 0 -12 -7 0 -12 5 -12 10 0 6 -6 5
-14 -2 -23 -21 -1 -31 38 -18 38 12 48 30 19 30 -20 1 -64 30 -45 30 7 0 12 7
12 15 0 8 6 12 14 9 8 -3 17 -1 21 5 8 14 25 14 25 1 0 -5 -6 -10 -13 -10 -7
0 -22 -7 -33 -16 -18 -15 -17 -15 16 -10 25 4 31 3 20 -4 -11 -7 -11 -10 -2
-10 7 0 15 7 18 15 4 8 10 12 15 9 5 -3 18 -2 30 1 15 5 18 12 13 27 -3 11 -2
18 3 15 14 -9 26 4 50 53 20 41 22 43 22 18 1 -16 -4 -28 -10 -28 -7 0 -9 -10
-7 -25 4 -19 1 -25 -13 -25 -29 0 -41 -33 -22 -60 12 -17 13 -25 5 -28 -22 -7
-12 -24 10 -19 13 4 29 0 39 -8 14 -14 20 -11 52 20 21 20 37 40 37 44 0 5 11
9 24 9 18 0 23 -6 23 -27 0 -14 7 -51 15 -81 9 -30 14 -58 11 -63 -6 -11 -51
-9 -58 3 -8 13 -51 13 -76 -1 -15 -8 -26 -7 -43 5 -20 13 -27 13 -51 0 -30
-15 -71 -19 -79 -6 -2 4 2 34 10 67 18 77 17 98 -3 59 -12 -24 -24 -33 -52
-38 -19 -3 -40 -1 -45 4 -52 52 -254 -94 -358 -257 -26 -40 -48 -56 -48 -33 0
6 4 10 9 10 5 0 12 7 15 16 3 8 2 12 -4 9 -19 -12 -10 2 25 39 19 21 35 43 35
49 0 7 -12 -5 -27 -26 -14 -20 -35 -37 -45 -37 -13 0 -18 -6 -17 -17 4 -28
-11 -83 -23 -83 -6 0 -8 7 -5 15 4 8 2 17 -4 20 -5 4 -7 10 -4 15 7 12 -12 23
-26 14 -8 -4 -7 -9 2 -15 11 -6 10 -9 -4 -15 -11 -4 -25 1 -37 11 -24 21 -39
13 -20 -11 12 -13 11 -17 0 -24 -9 -5 -17 -5 -21 1 -3 6 -16 -5 -28 -25 -12
-20 -20 -40 -16 -46 19 -30 -24 -1 -92 62 -43 40 -148 138 -233 218 -85 80
-182 170 -215 201 -156 144 -360 342 -363 350 -6 15 37 97 54 103 11 4 12 2 4
-13 -7 -15 -6 -20 7 -26 10 -3 13 -9 7 -13 -12 -9 -12 -62 0 -62 5 0 3 -7 -4
-15 -10 -12 -9 -15 4 -15 10 0 14 -4 11 -10 -3 -5 6 -21 22 -34 21 -19 31 -21
44 -13 10 6 16 14 13 18 -4 8 32 22 58 22 11 0 30 25 53 68 l36 69 -35 103
c-19 56 -44 138 -56 182 -31 112 -68 187 -136 281 -90 125 -135 157 -252 180
-18 4 -31 10 -30 13 5 11 120 112 189 166 35 27 141 122 234 210 94 88 202
187 240 219 131 110 193 171 234 231 22 33 54 79 71 103 17 24 31 51 33 60 1
10 10 28 20 42 9 13 17 30 17 37 0 7 5 13 11 13 6 0 8 9 4 20 -3 11 -2 20 3
20 5 0 12 13 15 29 11 55 41 111 59 111 10 0 18 5 18 11 0 6 -9 9 -20 6 -22
-6 -25 0 -11 22 8 12 12 12 25 2 9 -8 16 -10 16 -6 0 4 -8 13 -17 20 -16 12
-16 14 0 39 12 17 27 26 45 26 24 1 25 2 10 14 -20 15 -14 53 11 59 13 4 11 6
-6 12 -24 8 -32 34 -10 36 9 0 9 2 -1 6 -10 4 -10 8 -1 19 14 17 33 19 23 3
-7 -13 13 -29 36 -29 12 1 12 3 -2 14 -10 7 -15 16 -11 20 4 4 1 11 -6 16 -19
11 -6 41 15 33 13 -5 15 -2 9 16 -6 20 -4 22 14 16 25 -8 50 13 43 37 -5 19
-32 25 -32 8 0 -5 5 -10 10 -10 6 0 10 -4 10 -9 0 -5 -11 -8 -25 -7 -29 1 -32
13 -7 32 15 12 15 15 2 24 -13 9 -13 10 0 10 26 0 82 59 84 88 1 15 10 44 20
64 12 24 16 47 12 64 -4 14 -4 35 0 47 6 19 7 19 19 -9 11 -25 14 -27 20 -11
4 10 3 35 -3 54 -10 31 -9 36 9 40 24 7 25 33 2 34 -14 0 -13 2 4 9 15 6 20
15 16 29 -3 12 -1 21 5 21 10 0 9 56 -1 67 -4 3 -4 10 -1 15 3 5 13 1 21 -9
13 -17 14 -16 10 11 -4 22 0 30 14 33 25 7 24 23 -1 23 -19 0 -20 4 -13 53 4
28 7 78 7 110 -1 49 1 55 12 40 19 -25 17 -2 -2 25 -13 20 -13 22 0 22 10 0
13 6 9 16 -5 13 -7 13 -14 2 -5 -8 -9 -9 -9 -2 0 6 7 17 15 24 11 9 12 16 4
26 -6 7 -9 21 -8 31 1 10 -1 26 -4 36 -14 37 -15 46 -8 79 4 19 4 44 0 56 -5
12 -4 22 0 22 10 0 5 75 -5 92 -11 17 -13 118 -3 118 6 0 7 6 2 13 -10 16 -13
31 -19 91 -4 40 -1 53 16 71 18 20 19 23 5 35 -17 14 -21 65 -5 75 5 3 14 24
20 45 6 22 15 40 20 40 4 0 11 14 15 30 4 17 11 30 16 30 5 0 9 6 9 13 0 7 14
21 32 32 45 26 19 31 -37 6 -25 -11 -45 -16 -45 -10 0 5 4 9 10 9 14 0 33 40
37 79 2 19 9 41 14 48 12 13 15 75 5 91 -9 15 4 42 20 42 12 0 11 5 -2 26 -12
18 -14 28 -6 33 7 4 8 12 2 21 -6 9 -3 25 9 45 19 30 22 84 7 118 -11 24 0 33
19 17 18 -15 20 0 3 19 -11 11 -9 12 10 6 36 -11 22 17 -23 43 -19 11 -19 11
5 12 24 1 24 1 6 15 -10 7 -15 18 -11 24 3 6 1 11 -4 11 -6 0 -11 7 -11 16 0
13 7 15 38 10 32 -5 34 -4 15 6 -13 6 -23 15 -23 20 0 4 -7 8 -16 8 -8 0 -12
5 -9 10 4 6 11 8 16 5 5 -4 9 1 9 9 0 9 -9 16 -20 16 -11 0 -20 5 -20 11 0 6
7 9 15 5 20 -7 19 -2 -10 50 -30 53 -30 54 -9 54 13 0 14 3 5 13 -13 17 -22
78 -24 170 -1 37 -5 67 -9 67 -11 0 -38 31 -38 43 0 7 5 4 11 -5 5 -10 16 -18
23 -18 8 0 19 -7 26 -15 7 -8 17 -15 23 -15 6 0 -9 21 -34 48 -49 50 -79 94
-79 113 0 8 4 8 15 -1 18 -15 19 -7 4 22 -17 31 -17 108 -2 108 11 0 10 7 -1
35 -13 31 -13 35 0 35 12 0 12 4 2 22 -7 12 -19 29 -27 37 -8 9 -25 39 -38 68
-13 29 -29 55 -34 58 -5 4 -9 14 -8 23 0 11 3 12 6 5 8 -21 22 -15 16 7 -3 12
-12 19 -22 18 -11 -2 -17 6 -19 27 -2 17 -8 35 -13 41 -5 6 -7 19 -3 27 9 24
-17 74 -43 86 -13 6 -23 15 -23 20 0 5 -11 12 -25 15 -14 4 -50 22 -81 42 -42
27 -53 39 -45 48 13 16 -17 18 -37 3 -9 -7 -17 -6 -25 2 -9 9 -9 14 3 21 9 6
11 13 5 18 -23 17 -36 53 -24 68 6 7 9 20 6 29 -4 8 -2 17 3 20 14 9 0 35 -19
35 -11 0 -12 -3 -4 -8 12 -8 12 -39 -2 -80 l-8 -23 -14 21 c-14 19 -13 23 3
35 11 7 16 17 11 21 -4 4 -7 1 -7 -6 0 -9 -5 -7 -15 6 -14 18 -14 18 -15 -8 0
-31 -3 -33 -29 -16 -17 11 -17 12 8 36 l26 24 -27 -16 c-32 -19 -64 -21 -74
-4 -5 8 0 9 14 6 12 -4 22 -2 22 3 0 9 -3 10 -32 13 -17 1 -23 44 -8 61 8 10
8 14 -2 18 -11 3 -11 8 0 26 10 17 10 21 0 22 -7 1 -20 2 -28 3 -10 1 -15 11
-14 29 1 15 -3 27 -7 27 -5 0 -9 -7 -9 -15 0 -8 -7 -15 -15 -15 -8 0 -15 8
-15 17 0 15 -2 14 -15 -3 -14 -19 -14 -19 -15 1 -1 19 -1 19 -14 3 -16 -22
-26 -23 -26 -3 0 9 -7 18 -16 22 -8 3 -13 11 -10 18 2 6 -7 25 -21 41 l-24 29
5 -44 c3 -30 1 -40 -6 -33 -6 6 -12 30 -14 53 -2 23 -6 45 -9 48 -10 10 -23
-21 -17 -42 4 -14 2 -18 -7 -12 -10 6 -11 3 -2 -13 17 -31 13 -35 -10 -13 -14
13 -20 27 -16 40 3 12 1 21 -4 21 -5 0 -9 7 -9 15 0 12 -7 14 -26 9 -41 -11
-63 39 -23 51 20 7 20 8 -7 36 -28 29 -44 37 -44 20 0 -5 7 -11 15 -13 10 -2
6 -7 -11 -15 -25 -12 -26 -11 -19 15 3 15 11 29 16 30 5 2 7 8 3 13 -3 5 0 9
5 9 6 0 11 9 11 20 0 24 -15 27 -24 4 -3 -8 -11 -12 -17 -9 -7 5 -3 14 10 26
25 24 38 24 44 2 4 -16 5 -16 6 -1 0 9 -3 20 -9 23 -5 3 -10 11 -10 16 0 6 4
8 10 4 5 -3 21 -2 37 1 25 7 25 8 8 15 -19 7 -18 8 3 8 21 1 30 15 15 24 -5 2
-2 2 6 0 9 -2 12 3 8 17 -3 12 -1 18 5 14 5 -3 7 -17 3 -31z m-471 -1567 c-4
-10 2 -14 19 -12 14 0 25 3 24 6 -3 7 9 10 41 10 22 0 24 -2 12 -11 -12 -8
-11 -9 5 -5 56 15 86 16 79 4 -6 -10 -4 -10 8 0 13 11 21 11 39 2 12 -7 19 -8
16 -3 -3 5 3 9 13 9 10 0 16 -5 13 -11 -2 -7 9 -11 31 -10 19 0 32 -3 29 -8
-3 -5 4 -6 17 -2 15 5 20 4 16 -4 -5 -7 7 -11 38 -11 25 0 46 -5 48 -12 5 -15
100 -18 110 -4 5 7 8 7 8 -2 0 -8 9 -10 28 -6 22 4 24 3 12 -6 -12 -10 -11
-11 8 -7 12 3 22 4 22 2 0 -2 3 -11 7 -21 4 -12 3 -15 -5 -10 -7 4 -22 4 -33
1 -16 -5 -18 -9 -9 -15 16 -10 41 -2 56 16 9 11 15 8 34 -16 13 -17 27 -30 32
-30 5 0 24 -15 42 -34 25 -25 37 -31 49 -24 13 7 15 5 11 -7 -4 -10 0 -15 12
-16 16 0 15 -2 -3 -9 -31 -13 -29 -17 7 -15 24 1 28 -1 19 -12 -9 -10 -7 -13
7 -14 18 0 18 -1 0 -8 -18 -7 -18 -8 -3 -14 9 -3 17 -17 17 -29 0 -19 2 -20
10 -8 6 9 10 10 10 3 0 -6 -5 -15 -12 -19 -7 -5 -5 -12 8 -22 13 -10 15 -16 7
-19 -18 -7 -16 -21 7 -46 19 -20 19 -22 4 -28 -13 -4 -14 -8 -6 -13 7 -4 16
-5 21 -2 17 11 41 -6 41 -28 0 -17 -2 -18 -10 -6 -5 8 -10 10 -10 4 0 -6 7
-17 15 -24 8 -7 15 -20 15 -29 0 -9 4 -21 9 -27 5 -5 11 -18 13 -29 1 -11 7
-23 11 -26 5 -3 9 -22 10 -42 1 -21 7 -37 14 -37 6 0 14 -14 18 -30 4 -17 14
-44 22 -61 9 -17 16 -43 17 -57 1 -15 12 -48 23 -75 12 -26 23 -51 24 -55 7
-20 39 -43 51 -37 10 6 10 5 2 -4 -13 -15 -7 -51 9 -51 6 0 7 -3 4 -7 -4 -3
-2 -12 3 -19 11 -13 13 -22 34 -159 12 -81 23 -224 29 -385 1 -30 5 -57 9 -60
4 -3 8 -33 9 -65 2 -33 7 -66 12 -72 6 -9 5 -13 -3 -13 -8 0 -10 -8 -5 -22 13
-45 11 -167 -3 -173 -9 -3 -11 -12 -7 -26 4 -12 3 -19 -1 -16 -5 3 -10 -12
-11 -34 -2 -25 2 -39 10 -39 9 0 8 -3 -1 -9 -8 -4 -13 -11 -13 -15 3 -23 -2
-27 -9 -8 -5 12 -14 22 -19 22 -6 0 -8 -7 -5 -15 4 -10 0 -15 -12 -15 -15 -1
-13 -4 9 -16 27 -14 37 -34 17 -34 -5 0 -10 5 -10 10 0 6 -6 10 -14 10 -9 0
-12 -8 -8 -25 2 -15 0 -25 -7 -25 -7 0 -9 -10 -5 -27 6 -27 6 -27 -10 -8 -13
16 -15 17 -10 3 4 -12 1 -18 -7 -18 -11 0 -11 -2 1 -9 8 -6 17 -8 21 -5 4 2 9
-5 12 -16 3 -11 0 -18 -7 -17 -6 1 -10 -4 -8 -10 1 -7 -3 -13 -9 -13 -6 0 -8
-9 -4 -20 5 -15 3 -18 -8 -14 -19 7 -57 -25 -50 -42 3 -8 -1 -14 -8 -14 -12 0
-12 -2 -1 -9 11 -7 11 -11 0 -22 -7 -8 -18 -24 -25 -36 -11 -20 -10 -22 15
-26 19 -3 14 -4 -15 -6 -50 -1 -58 -20 -10 -22 30 -2 30 -2 5 -6 -16 -2 -28
-6 -28 -8 0 -16 15 -35 29 -36 10 0 11 -2 4 -6 -7 -2 -13 -11 -13 -19 0 -8 -4
-14 -9 -14 -5 0 -9 6 -8 13 1 30 -4 47 -13 47 -6 0 -10 -8 -8 -17 2 -14 -3
-17 -21 -15 -15 2 -21 0 -16 -7 3 -6 11 -9 16 -6 5 4 9 1 9 -4 0 -6 -7 -11
-15 -11 -8 0 -15 -4 -15 -10 0 -5 6 -10 13 -10 9 0 8 -3 -2 -9 -10 -7 -11 -13
-2 -30 8 -13 8 -21 2 -21 -6 0 -13 11 -17 25 -3 14 -10 25 -15 25 -13 0 -11
-24 3 -38 8 -8 9 -12 1 -12 -6 0 -18 7 -27 15 -8 8 -17 15 -20 15 -3 0 -3 -7
0 -15 4 -8 1 -15 -6 -15 -10 0 -10 -3 0 -15 11 -13 10 -14 -4 -9 -13 5 -17 2
-14 -12 2 -10 -3 -19 -10 -19 -7 0 -17 -7 -22 -15 -8 -13 -10 -12 -10 3 0 10
-8 17 -21 17 -12 0 -18 4 -13 11 7 12 -13 29 -36 29 -13 0 -13 -1 0 -10 9 -6
10 -10 3 -10 -7 0 -17 -10 -24 -21 -7 -13 -7 -19 -1 -15 6 3 13 2 17 -4 3 -5
-1 -10 -10 -10 -9 0 -13 -4 -10 -10 3 -6 0 -10 -8 -10 -10 0 -13 -8 -9 -25 5
-30 18 -33 25 -5 3 13 10 18 21 14 9 -3 16 -10 16 -15 0 -4 -7 -6 -15 -3 -11
5 -13 2 -9 -10 5 -13 0 -16 -29 -14 -23 2 -33 7 -30 16 9 22 -11 12 -37 -18
-13 -17 -33 -30 -44 -30 -20 0 -20 0 0 -15 19 -15 19 -15 -1 -27 -11 -6 -40
-11 -65 -11 -25 1 -34 -1 -20 -4 14 -3 28 -10 31 -15 4 -7 13 -6 27 1 11 6 29
11 39 10 15 0 14 -2 -4 -9 -13 -5 -23 -14 -23 -20 0 -5 -14 -10 -30 -10 -18 0
-29 5 -28 12 2 7 -7 14 -18 16 -24 3 -60 38 -78 74 -10 20 -20 23 -76 24 -91
3 -90 2 -90 19 0 10 -11 15 -35 15 -24 0 -35 -5 -35 -15 0 -17 -16 -20 -25 -5
-3 6 -2 10 4 10 6 0 8 7 5 15 -9 24 -24 17 -24 -10 0 -16 -6 -25 -16 -25 -8 0
-13 4 -10 9 3 5 0 21 -8 36 -13 26 -14 26 -21 6 -3 -12 -10 -21 -15 -21 -6 0
-6 -10 0 -25 7 -17 6 -25 -1 -25 -6 0 -9 -7 -5 -15 8 -21 -49 -20 -99 1 -24
10 -52 13 -74 10 -33 -5 -34 -5 -11 6 24 11 24 12 3 15 -32 6 -103 -16 -103
-31 0 -17 -126 -16 -155 1 -18 11 -18 12 -2 13 9 0 17 5 17 11 0 16 -144 6
-215 -15 -33 -10 -80 -20 -103 -23 -40 -4 -43 -3 -38 15 4 11 2 23 -4 27 -6 4
-8 15 -5 26 7 22 -20 28 -28 7 -3 -8 -6 -5 -6 5 -1 10 -6 15 -11 12 -6 -4 -19
-3 -28 1 -24 10 -82 11 -82 1 0 -5 16 -7 37 -5 20 2 38 -2 40 -8 2 -6 -10 -11
-29 -11 -18 0 -44 -4 -57 -8 -17 -6 -22 -5 -17 3 10 16 -8 15 -51 -3 -42 -18
-46 -18 -38 -5 3 6 -3 10 -14 10 -11 0 -23 -4 -26 -10 -3 -5 -17 -10 -30 -10
-13 0 -27 -4 -30 -10 -3 -5 -1 -10 6 -10 8 0 6 -6 -4 -18 -10 -10 -17 -24 -17
-30 0 -7 -7 -5 -18 6 -17 16 -17 18 -1 36 15 16 16 46 2 46 -3 0 -2 -7 1 -16
4 -11 2 -15 -8 -11 -8 3 -20 -1 -26 -8 -7 -8 -22 -13 -34 -11 -11 3 -23 5 -26
5 -3 1 2 6 10 11 13 8 12 10 -3 10 -10 0 -16 4 -13 9 3 5 -4 11 -16 15 -14 3
-26 0 -31 -9 -4 -8 -13 -15 -19 -15 -7 0 -7 4 -1 13 14 18 24 49 14 42 -5 -3
-20 0 -33 5 -20 9 -21 10 -2 7 12 -3 28 -1 35 4 9 6 -2 9 -31 10 -25 1 -48 1
-52 0 -4 0 -2 13 4 29 5 17 15 30 21 30 6 0 8 3 4 6 -3 3 -12 2 -19 -2 -21
-13 -46 -12 -41 3 3 7 1 13 -5 13 -6 0 -9 -11 -7 -25 1 -14 -2 -25 -6 -25 -9
0 -10 3 -13 32 0 7 -10 15 -21 18 -24 6 -30 40 -6 41 11 0 9 3 -6 9 -13 5 -23
14 -23 20 0 5 -11 10 -24 10 -13 0 -27 7 -30 16 -3 9 -12 14 -20 11 -7 -3 -21
4 -31 15 -17 20 -17 21 4 15 15 -3 21 0 21 10 0 10 -6 13 -16 9 -13 -5 -15 -1
-12 24 3 20 0 30 -9 30 -7 0 -13 11 -13 27 0 28 -10 26 -14 -3 -2 -10 -15 -21
-29 -25 -29 -8 -47 11 -47 47 0 14 -3 15 -12 6 -14 -14 -28 -16 -28 -3 0 5 9
13 21 16 26 9 20 28 -12 35 -19 5 -24 12 -22 33 1 22 -3 27 -20 27 -13 0 -17
3 -11 8 6 4 13 16 16 28 4 17 1 20 -18 16 -14 -2 -24 0 -24 7 0 6 8 11 18 11
9 0 13 4 7 8 -5 4 -11 16 -12 27 -2 11 -5 36 -7 55 -2 19 -7 43 -11 53 -5 11
-3 17 6 17 7 0 9 3 5 7 -4 4 -24 7 -44 6 -20 -1 -30 0 -22 3 8 3 20 16 27 30
10 21 9 24 -5 22 -10 -2 -17 4 -17 14 0 9 -9 24 -20 32 -19 15 -19 15 -1 16
15 0 16 3 6 15 -6 8 -9 23 -5 35 4 11 2 20 -4 20 -7 0 -7 8 0 27 10 27 10 27
-11 8 -11 -10 -23 -15 -27 -11 -4 4 -1 11 7 16 13 8 12 10 -3 10 -10 0 -16 4
-13 9 3 4 18 6 32 3 19 -3 25 -1 20 7 -4 6 -13 11 -19 10 -7 -1 -19 -1 -27 0
-13 1 -13 2 0 11 11 7 11 10 2 10 -22 0 -2 20 21 21 17 1 18 2 5 6 -23 6 -23
23 0 24 16 1 16 2 -1 6 -10 3 -17 12 -16 21 1 9 0 22 -1 27 -6 29 -4 61 5 68
6 4 4 11 -5 17 -10 6 -11 10 -3 10 9 0 10 7 4 23 -5 12 -4 33 1 46 5 13 11 45
13 70 11 102 18 140 25 136 5 -3 6 4 3 15 -3 12 1 22 11 26 9 3 13 11 10 16
-4 6 -10 5 -15 -3 -6 -9 -9 -1 -9 24 0 30 5 40 23 47 12 5 16 9 8 9 -12 1 -13
23 -1 119 0 2 5 0 10 -3 6 -3 10 -1 10 4 0 6 -4 11 -9 11 -5 0 8 34 30 76 22
42 38 79 35 81 -3 3 6 14 19 25 14 11 25 29 25 41 0 12 9 30 19 42 53 55 69
74 65 78 -2 2 7 25 21 50 13 26 20 47 15 47 -6 0 -10 5 -10 11 0 5 5 7 10 4 7
-4 9 3 6 19 -3 14 -1 26 4 26 5 0 8 20 6 44 -1 25 2 43 6 40 5 -3 6 6 2 20 -4
17 -2 26 5 26 8 0 9 5 1 19 -13 26 -13 34 2 25 7 -5 9 -2 5 8 -3 9 1 25 9 37
8 12 12 26 9 31 -3 6 1 10 10 10 9 0 14 4 11 9 -8 12 61 101 78 101 7 0 19 11
26 25 7 14 22 25 32 25 11 0 17 4 14 9 -3 5 13 11 36 14 22 3 44 10 47 15 3 5
30 8 59 8 33 0 56 5 61 12 4 7 12 12 17 11 25 -4 54 3 68 16 8 8 20 15 26 15
6 0 8 5 4 13 -6 9 -4 9 8 -1 13 -10 19 -10 31 3 9 8 22 15 29 15 8 0 24 9 36
20 12 11 35 23 52 26 16 4 28 9 26 13 -3 4 3 7 12 8 9 1 37 4 62 7 25 3 82 5
127 6 65 0 82 4 87 17 6 14 8 14 22 -3 9 -10 13 -13 9 -6 -3 6 0 12 7 12 16 0
78 -22 97 -34 8 -5 16 -5 20 1 3 6 26 10 51 11 105 2 205 12 208 22 2 5 14 10
27 10 13 0 27 5 30 10 4 6 15 8 26 5 11 -4 19 -2 19 4 0 6 4 11 10 11 5 0 7
-6 4 -14z m0 -3157 c7 6 20 9 29 5 18 -6 31 -47 17 -52 -6 -2 -10 -8 -10 -13
0 -12 27 -12 32 0 2 6 22 11 46 12 24 2 51 11 62 21 23 22 34 23 26 3 -7 -18
5 -20 23 -2 11 10 14 10 18 0 3 -7 14 -13 26 -13 23 0 67 -44 67 -67 0 -7 8
-13 18 -13 13 0 14 -2 4 -9 -7 -4 -12 -12 -11 -17 1 -5 -1 -17 -6 -27 -6 -15
-10 -16 -16 -5 -7 10 -9 9 -9 -4 0 -9 8 -22 18 -28 16 -11 16 -11 0 -6 -10 3
-22 -2 -27 -12 -6 -10 -11 -12 -11 -4 0 21 -20 13 -20 -9 0 -11 5 -17 10 -14
6 3 10 1 10 -4 0 -6 -9 -11 -20 -11 -12 0 -20 -7 -20 -16 0 -10 -6 -14 -15
-10 -8 3 -15 1 -15 -4 0 -6 9 -10 20 -10 17 0 18 -3 8 -26 -10 -21 -9 -27 3
-35 11 -7 9 -9 -8 -9 -17 0 -23 -6 -23 -22 0 -19 -2 -20 -10 -8 -6 9 -10 10
-10 3 0 -13 39 -53 52 -53 4 0 8 7 8 16 0 9 6 14 13 12 6 -3 12 -11 12 -19 0
-8 14 -17 35 -20 19 -4 25 -7 14 -8 -24 -1 -41 -41 -18 -41 8 0 14 -4 14 -10
0 -5 -5 -10 -11 -10 -5 0 -7 -4 -4 -10 4 -6 -6 -10 -24 -10 -24 0 -32 -5 -37
-25 -4 -18 -13 -25 -33 -27 -14 -1 -33 -2 -41 -3 -26 -2 -41 -16 -35 -34 4
-15 0 -17 -27 -16 -18 1 -46 -4 -61 -12 -33 -16 -40 -14 -31 11 4 9 13 15 20
12 7 -3 16 -1 19 4 4 6 -9 10 -29 10 -24 0 -36 -5 -39 -17 -4 -14 -5 -13 -6 4
-1 29 -16 38 -18 11 -2 -27 -12 -35 -23 -19 -7 12 -11 11 -25 -3 -13 -13 -20
-14 -31 -5 -8 6 -21 9 -29 5 -22 -8 -64 14 -58 30 4 11 0 12 -18 5 -17 -6 -28
-5 -37 5 -14 16 -16 28 -2 19 6 -4 7 1 3 11 -6 16 -8 15 -16 -4 -11 -25 -27
-29 -27 -7 0 28 -19 15 -40 -27 -15 -31 -19 -35 -15 -15 6 29 -11 38 -22 11
-3 -8 -12 -13 -19 -10 -8 3 -14 0 -14 -8 0 -20 -48 -42 -62 -28 -14 14 -37 -2
-39 -27 -1 -9 -4 -5 -8 8 -3 13 -13 27 -21 31 -8 4 -26 12 -39 19 -14 8 -21 8
-16 2 4 -7 -3 -11 -18 -11 -24 0 -42 23 -32 39 2 5 -14 14 -35 21 -36 12 -46
25 -41 53 1 6 -24 11 -56 10 -7 -1 -13 3 -13 8 0 5 7 9 15 9 19 0 19 14 0 30
-13 11 -13 15 6 31 l22 19 -24 9 c-24 10 -24 10 -1 10 27 1 30 21 3 21 -10 0
-21 7 -25 15 -3 9 0 15 9 15 21 0 19 20 -2 21 -16 1 -17 2 -1 6 10 2 15 10 11
19 -3 8 0 14 7 14 6 0 8 4 5 10 -3 5 -18 8 -33 6 -15 -2 -21 -1 -14 1 8 3 22
13 33 24 14 14 16 19 5 19 -8 0 -18 -4 -21 -10 -3 -5 -13 -10 -21 -10 -20 0
-17 20 4 21 12 0 13 2 3 6 -11 5 -11 7 0 14 11 7 9 9 -6 10 -16 1 -16 2 5 9
24 7 23 7 -12 15 -39 7 -52 24 -20 26 13 0 13 2 -4 9 -34 13 -33 22 5 60 19
19 31 30 27 23 -3 -6 -2 -14 3 -17 5 -3 11 0 14 8 4 9 20 13 51 11 25 -1 43 2
40 7 -3 4 -12 8 -20 8 -8 0 -14 5 -14 10 0 6 9 10 19 10 11 0 23 5 26 10 3 6
13 10 21 10 8 0 12 -4 9 -10 -4 -7 3 -7 20 0 17 7 24 7 20 0 -3 -6 -2 -10 4
-10 5 0 11 6 14 13 3 9 7 9 19 0 12 -11 17 -9 26 12 6 14 15 25 19 26 41 2
236 -2 263 -6 43 -7 47 -7 145 -1 51 3 81 10 84 18 2 7 8 2 13 -11 6 -18 11
-21 22 -12z m98 -1287 c21 -21 17 -42 -8 -42 -10 0 -12 -5 -8 -12 6 -10 4 -10
-8 0 -11 9 -18 10 -23 2 -3 -5 -1 -10 5 -10 6 0 8 -5 5 -10 -4 -6 -14 -8 -23
-6 -10 3 -24 1 -32 -5 -12 -8 -10 -9 7 -4 18 5 22 3 17 -10 -4 -10 -13 -13
-26 -9 -14 4 -21 0 -25 -15 -7 -27 -23 -27 -23 0 0 11 -4 17 -10 14 -6 -4 -8
-15 -5 -26 4 -11 2 -19 -4 -19 -6 0 -11 7 -11 16 0 10 -6 14 -15 10 -9 -3 -19
3 -26 15 -14 28 -1 39 17 15 7 -11 17 -16 21 -12 4 4 1 11 -6 16 -8 4 -11 15
-8 25 4 9 11 13 17 10 6 -4 10 7 11 27 0 20 3 27 7 18 4 -8 17 -16 30 -16 25
-2 26 0 10 29 -10 19 -9 20 4 9 17 -14 90 -14 82 0 -3 4 -16 5 -30 2 -14 -4
-24 -2 -24 5 0 17 60 5 82 -17z m-2496 -382 c13 0 15 -38 3 -45 -15 -10 -10
-28 5 -22 8 3 20 -1 26 -9 7 -8 9 -14 5 -14 -5 0 -5 -3 -2 -7 4 -3 13 1 20 11
10 13 18 15 37 7 22 -8 22 -10 5 -11 -15 0 -17 -2 -6 -9 20 -13 3 -33 -22 -26
-12 2 -17 2 -10 -1 7 -3 9 -12 6 -20 -4 -10 3 -14 23 -15 l29 -1 -25 -8 c-24
-8 -24 -8 -2 -9 12 -1 22 -7 22 -13 0 -22 -17 -41 -29 -34 -6 4 -11 4 -11 1 0
-11 26 -33 46 -38 10 -2 1 -6 -21 -7 -31 -1 -35 -3 -20 -9 11 -5 26 -6 34 -3
10 4 13 1 8 -12 -4 -10 -7 -21 -7 -26 0 -4 -32 -8 -70 -9 -68 -1 -70 0 -60 19
11 21 54 28 65 10 3 -5 -2 -10 -11 -10 -10 0 -15 -3 -11 -6 3 -4 18 -3 33 0
25 7 26 8 8 21 -11 8 -27 15 -37 15 -9 0 -34 9 -54 20 l-37 20 40 -2 c21 -1
42 -5 45 -11 4 -5 12 -8 20 -5 8 3 5 11 -11 26 -14 13 -31 20 -38 17 -11 -4
-13 1 -8 20 6 24 5 25 -46 27 l-53 1 50 7 c47 6 47 13 0 23 -14 3 -12 5 8 6
18 1 26 5 21 12 -3 6 0 15 7 20 10 6 6 9 -14 9 -16 0 -26 4 -22 10 3 5 12 7
20 3 14 -5 19 8 18 45 -1 6 4 12 9 12 5 0 2 7 -6 16 -9 8 -16 21 -16 27 0 7 7
4 14 -5 7 -10 17 -18 22 -18z m2211 -1091 c6 -13 19 -76 28 -139 9 -63 22
-152 29 -198 10 -70 10 -82 -2 -77 -9 3 -12 -1 -10 -13 2 -9 9 -16 15 -15 7 2
9 -11 6 -37 -4 -27 -2 -40 6 -40 8 0 10 -8 6 -21 -5 -15 -4 -19 4 -15 7 5 11
-3 11 -21 0 -29 22 -124 35 -157 6 -14 5 -17 -3 -12 -18 11 -15 -37 5 -101 13
-42 14 -56 5 -62 -8 -5 -11 -32 -7 -92 9 -156 16 -234 27 -284 5 -28 8 -60 6
-70 -3 -13 -8 -1 -16 30 -6 28 -23 73 -37 100 l-26 50 6 -50 c4 -27 13 -55 20
-61 8 -6 12 -20 8 -32 -3 -12 2 -42 11 -68 23 -68 21 -81 -16 -93 -38 -12
-167 -11 -174 1 -3 4 -14 3 -25 -2 -11 -6 -61 -9 -117 -7 l-97 3 100 2 100 2
1 93 c0 50 2 198 4 327 3 254 -4 403 -25 546 -7 51 -13 172 -13 270 -1 204 7
238 58 249 16 4 32 11 36 16 9 15 28 5 41 -22z m1746 -116 c2 -5 7 -20 11 -34
5 -24 2 -29 -35 -43 -55 -22 -138 -85 -188 -143 -23 -26 -39 -39 -35 -28 9 28
119 132 160 151 36 17 42 32 22 52 -7 7 -8 12 -4 12 5 0 14 -7 20 -16 7 -9 18
-12 29 -8 18 7 23 29 8 38 -14 9 -68 -5 -88 -23 -11 -9 -30 -22 -44 -30 -41
-24 -109 -85 -109 -97 0 -7 6 -15 13 -18 6 -3 3 -4 -9 -1 -39 10 -97 -107 -59
-121 24 -10 31 4 9 20 -18 14 -17 15 14 14 32 -1 41 -11 22 -23 -5 -3 -10 -15
-10 -26 0 -24 -11 -24 -40 -1 -49 39 -21 100 95 210 96 92 200 146 218 115z
m625 -30 c111 -68 232 -203 232 -259 0 -19 -32 -54 -50 -54 -3 0 -11 13 -18
30 -12 26 -11 32 3 46 9 9 19 13 23 10 3 -4 1 -10 -5 -14 -7 -4 -10 -18 -6
-30 6 -26 12 -27 28 -5 19 25 -12 84 -40 77 -16 -4 -17 -3 -5 5 13 9 13 14 0
38 -9 16 -26 32 -38 38 -12 5 -22 15 -22 22 0 19 -13 16 -32 -6 -15 -18 -15
-21 3 -37 15 -14 21 -14 34 -4 9 7 15 8 15 2 0 -6 -5 -12 -12 -14 -7 -3 -8
-10 -4 -17 6 -9 11 -10 19 -2 19 19 28 12 10 -7 -17 -18 -20 -16 -68 30 -27
27 -80 65 -117 84 -60 30 -68 38 -68 62 0 16 3 32 7 35 15 15 53 5 111 -30z
m-605 -101 c27 5 38 -6 15 -15 -10 -4 -10 -6 0 -6 8 -1 16 8 19 18 5 18 30 31
63 31 8 0 0 -9 -18 -20 -18 -11 -35 -27 -38 -35 -4 -9 -19 -15 -40 -15 -51 0
-101 -25 -122 -59 -10 -17 -23 -28 -28 -23 -4 4 -3 0 3 -8 7 -9 9 -21 5 -26
-11 -17 -69 -44 -77 -36 -5 4 -5 2 -1 -5 3 -6 2 -14 -4 -18 -5 -3 -10 3 -10
14 0 11 -4 23 -10 26 -14 8 11 52 52 92 58 57 71 68 107 90 31 19 36 19 47 6
7 -10 20 -14 37 -11z m227 -228 c0 -4 -8 -13 -17 -20 -16 -12 -16 -12 5 -7 12
3 22 9 22 14 0 15 63 9 105 -10 47 -21 105 -68 105 -84 -1 -14 -151 -107 -172
-107 -8 0 -19 5 -25 11 -8 8 -13 8 -17 0 -9 -13 -46 -15 -46 -2 0 14 53 23 85
15 19 -5 26 -3 21 4 -3 6 -20 13 -36 17 -32 7 -39 19 -15 29 19 7 20 36 0 36
-8 0 -12 6 -10 13 3 6 0 19 -5 27 -9 13 -11 13 -19 0 -6 -8 -6 -19 -1 -25 12
-15 -3 -86 -21 -98 -12 -7 -32 1 -82 34 -37 24 -67 49 -67 56 0 19 67 65 123
84 58 20 67 22 67 13z m260 -183 c13 -46 13 -96 0 -141 -19 -65 -21 -66 -96
-13 l-69 48 78 3 c65 2 77 6 77 20 0 27 -12 38 -47 45 -21 4 -35 2 -44 -9 -10
-13 -14 -13 -29 1 -20 18 -30 19 -30 4 0 -11 -24 -39 -34 -39 -3 0 -6 7 -6 15
0 9 37 40 83 69 90 60 100 59 117 -3z m-2035 -31 c9 0 26 -37 46 -102 25 -80
32 -123 34 -191 0 -49 -3 -91 -7 -93 -5 -3 -5 -10 -2 -16 6 -9 22 -99 56 -315
l11 -71 33 0 c24 0 34 5 35 17 1 14 2 14 6 -1 3 -13 18 -18 61 -20 31 -2 -40
-4 -158 -4 -118 0 -194 2 -168 4 44 3 46 4 43 30 -2 15 -6 79 -9 144 -4 64
-11 139 -16 168 -5 28 -9 54 -9 58 1 4 1 9 -1 12 -1 3 -3 27 -5 53 -2 27 -6
51 -9 54 -3 3 -1 12 5 20 7 8 8 13 1 13 -5 0 -8 8 -5 18 2 9 0 38 -6 62 -5 25
-6 49 -2 53 18 18 56 -347 71 -675 0 -5 7 -8 16 -8 10 0 14 6 10 15 -3 8 -1
15 4 15 6 0 10 -7 10 -15 0 -8 5 -15 11 -15 8 0 10 15 6 46 -3 29 -1 41 4 33
5 -8 9 -26 9 -41 0 -15 5 -30 10 -33 19 -12 6 77 -21 140 -16 39 -30 136 -24
165 8 35 -20 234 -41 293 -13 38 -13 43 2 54 22 16 12 85 -11 76 -8 -3 -15 0
-15 6 0 6 5 11 12 11 9 0 9 3 0 12 -7 7 -11 23 -11 38 1 16 3 19 6 8 2 -10 11
-18 18 -18z m1804 -76 c16 19 28 13 118 -49 74 -51 82 -62 61 -83 -20 -20 -28
-14 -28 18 0 27 -2 30 -19 20 -27 -14 -34 -13 -27 5 3 9 0 15 -9 15 -8 0 -15
-7 -15 -16 0 -8 -4 -13 -9 -10 -5 3 -7 14 -4 25 7 28 -33 51 -89 51 -57 0 -90
-25 -81 -61 4 -15 3 -20 -6 -15 -6 4 -9 12 -6 17 4 5 -1 9 -10 9 -9 0 -14 -4
-10 -9 8 -15 -15 -25 -28 -12 -19 19 -29 12 -25 -19 3 -17 1 -33 -3 -35 -11
-7 -42 46 -32 55 4 5 46 31 92 59 77 46 86 50 101 36 15 -14 19 -14 29 -1z
m-520 -472 c6 -10 10 -10 20 2 10 12 18 13 32 5 16 -8 19 -20 17 -82 l-2 -72
-3 73 c-4 73 -18 95 -29 45 -3 -16 -7 -32 -8 -38 -2 -5 -10 7 -19 28 -24 57
-41 43 -45 -36 -3 -65 -14 -87 -25 -47 -3 14 -14 20 -31 20 -14 0 -26 5 -26
10 0 6 11 10 24 10 31 0 44 18 19 26 -46 15 -48 17 -19 23 41 8 46 31 8 31
-57 0 -62 -7 -62 -76 0 -62 -12 -85 -23 -44 -3 14 -14 20 -31 20 -14 0 -26 5
-26 10 0 6 11 10 25 10 16 0 25 6 25 15 0 8 -9 15 -19 15 -31 0 -34 18 -4 22
37 4 43 28 6 28 -48 0 -62 -18 -65 -85 l-3 -60 -23 49 c-16 34 -19 53 -12 60
7 7 10 1 10 -19 0 -21 3 -26 11 -18 8 8 8 17 -1 32 -6 12 -8 26 -5 31 11 19
-22 10 -40 -10 -10 -11 -22 -20 -27 -20 -4 0 -8 9 -8 20 0 11 -4 20 -9 20 -11
0 -23 -63 -16 -83 4 -8 1 -18 -5 -22 -8 -5 -10 10 -8 52 l3 58 37 0 c20 1 39
3 42 6 4 3 74 5 156 5 112 -1 153 -4 159 -14z m210 9 c9 -6 22 -6 33 0 13 7
22 5 35 -9 17 -17 19 -17 34 1 14 18 16 18 32 3 15 -16 18 -16 43 0 21 15 31
16 56 6 20 -7 37 -8 49 -2 25 14 83 12 97 -2 9 -9 15 -9 24 0 17 17 53 15 69
-4 12 -15 11 -16 -9 -10 -55 18 -100 -58 -67 -112 l16 -27 -20 24 c-12 13 -21
31 -21 42 0 35 -19 29 -23 -8 -3 -35 -4 -34 -5 10 -2 36 2 47 13 47 8 0 15 7
15 15 0 12 -10 14 -45 11 -53 -4 -69 -14 -37 -23 19 -5 22 -12 22 -55 0 -30
-4 -47 -10 -43 -5 3 -10 23 -11 43 0 32 -1 34 -9 15 -12 -28 -20 -30 -13 -3 7
26 -22 70 -47 70 -49 0 -82 -92 -47 -130 10 -12 9 -12 -4 -2 -9 6 -19 9 -22 5
-7 -7 -10 8 -11 72 -1 44 -19 64 -24 27 -5 -31 -46 -27 -50 6 -2 12 -7 22 -12
22 -9 0 -24 -75 -17 -87 2 -4 1 -17 -4 -28 -7 -20 -8 -20 -8 1 -1 31 -12 36
-38 19 -13 -9 -23 -11 -23 -5 0 6 11 15 25 20 19 7 25 17 25 40 0 34 -17 45
-55 36 -22 -6 -25 -12 -25 -54 0 -26 -5 -54 -10 -62 -7 -11 -10 5 -10 51 0 37
5 70 12 77 14 14 57 16 77 3z m681 -1 c19 3 59 4 88 2 50 -4 52 -5 52 -33 0
-16 5 -29 10 -29 6 0 9 3 9 8 -7 42 1 52 44 52 84 0 91 0 100 -9 5 -5 -6 -9
-28 -9 -20 0 -38 -2 -40 -4 -2 -2 -5 -31 -7 -65 -2 -39 -6 -59 -12 -53 -6 6
-15 5 -25 -2 -13 -10 -14 -10 -3 2 14 16 17 130 3 130 -11 0 -21 -36 -21 -78
0 -26 -4 -33 -17 -30 -14 2 -19 15 -21 56 -2 36 -7 52 -15 49 -16 -5 -21 -91
-7 -118 8 -15 9 -19 1 -15 -6 4 -16 27 -22 52 -12 48 -25 48 -32 -1 -3 -24 -4
-21 -6 13 -1 31 3 42 14 42 8 0 15 7 15 15 0 10 -11 13 -45 11 -53 -3 -64 -10
-36 -26 15 -8 21 -20 21 -45 0 -19 -4 -35 -10 -35 -5 0 -10 16 -10 35 0 24 -5
35 -14 35 -11 0 -14 -9 -12 -32 2 -18 1 -25 -1 -15 -3 11 -18 26 -34 35 -16
10 -29 20 -29 25 0 11 14 9 27 -4 17 -17 37 -1 22 17 -15 19 -44 18 -63 -2
-24 -23 -19 -42 14 -59 40 -21 39 -39 -1 -30 -29 7 -30 5 -24 -15 5 -14 3 -20
-3 -16 -5 3 -10 33 -10 66 0 70 19 93 66 81 15 -4 43 -5 62 -1z"/>
<path d="M2335 6463 c-16 -9 -50 -21 -75 -28 -27 -7 -45 -17 -45 -26 -1 -8 -6
-13 -13 -11 -7 1 -12 -2 -12 -8 0 -5 -7 -10 -15 -10 -8 0 -15 -5 -15 -10 0
-14 -46 -60 -60 -60 -14 0 -13 -37 3 -43 9 -4 8 -8 -3 -16 -11 -8 -12 -11 -2
-11 7 0 10 -5 6 -11 -3 -6 0 -15 7 -20 10 -6 4 -9 -18 -9 l-33 0 20 -20 c11
-11 20 -27 20 -35 0 -8 14 -28 30 -45 17 -17 30 -34 30 -38 1 -16 50 -62 66
-62 10 0 14 -3 11 -7 -10 -9 43 -54 55 -47 8 5 9 1 5 -10 -5 -14 -3 -17 8 -12
8 3 15 1 15 -3 0 -5 9 -7 20 -4 11 3 20 0 20 -6 0 -6 7 -11 15 -11 8 0 15 -6
16 -12 0 -7 4 -4 9 7 5 11 9 15 9 9 1 -6 23 -11 52 -12 47 -1 51 1 46 20 -5
16 -2 19 16 15 l22 -6 -22 16 c-13 8 -23 24 -23 33 0 10 -5 20 -12 22 -8 3 -4
12 10 26 23 23 38 29 27 12 -3 -5 1 -10 9 -10 9 0 22 -13 31 -29 20 -39 84
-91 113 -91 26 0 64 22 108 62 24 23 30 35 28 64 -3 32 -1 35 19 28 22 -6 90
-53 95 -65 2 -4 12 -5 22 -2 13 3 20 0 20 -9 0 -16 -99 -57 -179 -74 -52 -12
-53 -12 -18 -13 21 -1 75 8 120 20 48 12 99 19 124 16 41 -4 41 -4 32 22 -5
15 -21 39 -35 55 -28 30 -25 49 3 23 10 -8 37 -18 61 -20 37 -5 42 -3 38 11
-3 9 -1 24 5 32 8 12 9 11 4 -6 -4 -17 -1 -22 12 -20 22 1 36 45 21 63 -6 7
-8 16 -5 20 3 3 0 20 -7 37 -7 17 -11 37 -9 44 3 6 0 12 -6 12 -6 0 -11 7 -11
15 0 8 -5 15 -11 15 -7 0 -9 10 -5 26 6 21 4 25 -8 21 -10 -4 -16 -1 -16 9 0
18 -23 44 -39 44 -6 0 -11 7 -11 16 0 8 -5 12 -10 9 -6 -4 -17 -2 -24 5 -8 6
-34 13 -57 16 -24 3 -46 8 -49 12 -3 4 -31 7 -62 7 -32 0 -58 2 -58 5 0 8 -77
30 -105 30 -14 0 -25 4 -25 9 0 4 -16 7 -36 5 -20 -1 -45 3 -55 9 -15 9 -24 9
-39 -1 -17 -10 -21 -10 -26 2 -3 7 -15 14 -27 15 -12 0 -38 2 -57 5 -21 3 -47
-1 -65 -11z m308 -238 c20 -8 48 -15 62 -15 15 0 24 -4 20 -10 -3 -6 4 -10 17
-10 13 0 30 -5 38 -10 10 -7 -6 -10 -55 -10 -38 0 -108 -2 -154 -3 -64 -3 -84
0 -88 11 -4 10 -8 10 -13 2 -6 -10 -39 -12 -117 -9 -27 1 -29 11 -6 30 13 11
17 11 20 2 6 -18 21 -16 25 2 3 13 6 13 32 0 16 -9 32 -12 35 -9 3 4 0 9 -6
11 -29 10 -10 23 27 19 22 -3 42 -1 44 3 9 14 82 12 119 -4z"/>
<path d="M4326 6439 c5 -9 -6 -10 -39 -5 -25 4 -48 3 -51 -2 -6 -9 -100 -27
-123 -23 -7 1 -13 -3 -13 -10 0 -6 -7 -9 -15 -6 -8 4 -17 2 -21 -4 -3 -5 -14
-7 -25 -4 -11 4 -19 2 -19 -5 0 -6 5 -8 10 -5 6 3 10 1 10 -5 0 -8 -10 -9 -29
-5 -17 3 -32 2 -36 -4 -10 -17 -28 -13 -21 4 7 19 -1 19 -21 -1 -10 -10 -18
-12 -22 -5 -4 6 -12 6 -20 1 -8 -4 -20 -6 -28 -3 -7 3 -13 1 -13 -5 0 -6 -9
-8 -20 -5 -11 3 -20 0 -20 -6 0 -6 -12 -11 -26 -11 -14 0 -23 -4 -19 -10 4 -7
-2 -7 -18 -1 -14 6 -28 7 -31 4 -10 -10 -7 -35 3 -29 5 4 7 -3 4 -13 -5 -21
-33 -18 -33 4 0 7 -7 15 -15 19 -9 3 -15 0 -15 -8 0 -9 -8 -12 -25 -8 -20 3
-25 0 -25 -16 0 -11 -6 -23 -12 -25 -8 -4 -7 -6 3 -6 20 -1 33 -41 14 -41 -8
0 -13 -9 -12 -20 1 -11 5 -20 10 -20 4 0 5 -4 2 -10 -3 -5 -1 -10 4 -10 6 0
11 -4 11 -10 0 -5 -7 -10 -15 -10 -27 0 -15 -20 13 -21 27 -1 27 -1 3 -8 l-25
-7 24 -22 c13 -12 18 -22 12 -22 -7 0 -12 -4 -12 -10 0 -5 6 -10 14 -10 8 0
17 -9 21 -19 8 -26 35 -31 59 -12 17 14 17 11 -3 -22 -13 -21 -21 -43 -18 -50
3 -7 25 -13 51 -15 26 -1 73 -8 105 -17 57 -14 115 -20 81 -8 -59 22 -99 45
-102 60 -3 16 48 72 56 62 2 -2 15 -24 29 -49 51 -87 109 -106 183 -61 30 18
70 85 66 108 -1 6 2 14 8 18 5 3 10 1 10 -4 0 -6 9 -11 20 -11 11 0 20 -4 20
-10 0 -6 6 -9 13 -7 7 1 13 -10 14 -28 1 -16 0 -24 -3 -17 -4 8 -16 -2 -35
-28 -16 -22 -36 -40 -44 -40 -15 0 -22 -19 -7 -21 4 0 18 -2 31 -5 13 -2 31 1
39 8 12 10 14 10 8 1 -4 -8 -2 -13 8 -13 8 0 17 6 19 13 4 10 6 10 6 0 1 -7 6
-13 12 -13 5 0 7 5 4 10 -3 6 -2 10 3 10 6 0 12 -7 16 -15 3 -8 11 -15 18 -14
9 0 10 2 1 5 -7 3 -9 12 -6 20 5 13 7 13 14 2 8 -11 10 -11 18 1 7 11 9 11 14
0 4 -12 7 -11 16 1 6 8 14 15 18 16 8 0 58 21 83 34 8 4 14 15 12 24 -2 9 4
16 13 16 8 0 15 7 15 15 0 8 7 15 16 15 13 0 13 4 -3 30 -9 17 -25 30 -35 30
-24 0 -23 9 4 31 24 22 17 25 -12 7 -16 -10 -24 -10 -40 -1 -12 8 -21 9 -25 3
-7 -12 -46 -14 -44 -2 3 18 -2 32 -12 32 -6 0 -9 -7 -6 -15 4 -8 2 -17 -2 -19
-11 -7 -43 29 -34 37 3 4 -1 7 -11 7 -9 0 -14 -4 -11 -10 8 -13 -1 -13 -23 0
-9 6 -66 19 -127 29 -60 10 -103 20 -95 24 12 4 11 6 -3 6 -24 1 -12 21 13 21
10 0 20 7 24 15 3 8 10 15 17 15 6 0 9 -7 5 -15 -4 -13 1 -14 34 -9 23 4 45 2
52 -4 9 -7 19 -6 32 4 27 19 36 18 36 -6 0 -11 5 -20 10 -20 6 0 10 5 10 10 0
6 9 10 20 10 25 0 27 -17 3 -22 -10 -3 4 -5 32 -6 29 -1 52 4 57 11 6 9 10 8
18 -3 8 -12 1 -16 -43 -21 -50 -6 -37 -12 28 -13 18 -1 29 -6 28 -14 -4 -16 8
-15 32 2 11 7 34 13 50 13 33 -1 75 18 75 34 0 6 -9 8 -20 4 -28 -9 -25 4 3
14 13 5 25 5 28 -1 4 -7 13 -7 25 1 11 6 13 11 6 11 -7 0 -18 12 -25 27 -6 15
-38 52 -69 83 -93 91 -109 102 -134 96 -13 -4 -26 -1 -30 6 -4 6 -3 8 4 4 6
-3 13 -2 16 3 3 5 -8 14 -26 20 -40 14 -61 14 -52 0z"/>
<path d="M3022 5124 c-12 -8 -20 -20 -17 -25 4 -5 2 -9 -4 -9 -5 0 -11 5 -13
10 -2 6 -14 12 -26 15 -18 3 -22 0 -18 -10 3 -8 1 -15 -4 -15 -6 0 -10 9 -10
20 0 12 -7 20 -16 20 -24 0 -9 -48 26 -84 38 -39 163 -85 176 -65 3 5 10 7 15
4 17 -11 31 6 18 21 -15 19 -2 18 17 -1 18 -17 34 -20 34 -5 0 13 57 13 65 0
4 -6 10 -8 15 -5 5 3 21 0 37 -7 33 -14 135 -22 114 -9 -10 7 -7 12 14 22 41
21 27 34 -32 31 -31 -1 -53 2 -53 8 0 5 -9 10 -20 10 -11 0 -20 6 -20 13 0 8
-4 7 -10 -3 -9 -13 -13 -11 -29 9 -10 13 -23 21 -28 18 -6 -4 -36 7 -67 23
-63 34 -128 40 -164 14z"/>
<path d="M3581 5094 c-18 -8 -40 -22 -48 -30 -13 -12 -13 -15 0 -20 9 -3 24
-1 34 5 25 13 113 8 122 -8 4 -7 12 -11 17 -10 21 4 26 -2 14 -16 -7 -8 -20
-15 -30 -15 -10 0 -30 -6 -45 -14 -41 -21 -13 -29 53 -15 58 13 112 51 112 78
0 11 -4 11 -18 -2 -16 -15 -20 -14 -46 8 -16 14 -25 25 -20 25 5 1 -6 7 -25
15 -41 18 -76 18 -120 -1z"/>
<path d="M3073 4333 c21 -5 21 -10 2 -29 -8 -9 -15 -11 -15 -6 0 6 -7 13 -16
16 -13 5 -14 3 -7 -6 5 -7 13 -22 17 -33 6 -18 5 -17 -17 3 -14 14 -28 19 -31
14 -3 -6 0 -13 6 -16 10 -5 10 -7 1 -12 -7 -3 -13 -13 -13 -22 0 -12 3 -13 12
-4 16 16 39 15 32 -2 -3 -7 2 -16 10 -19 9 -4 16 -16 16 -27 0 -12 -4 -18 -10
-15 -5 3 -10 1 -10 -5 0 -7 6 -10 13 -7 6 2 12 16 12 30 -1 15 2 27 6 27 8 0
33 -60 30 -72 0 -5 4 -8 10 -8 6 0 9 7 5 15 -6 16 3 19 28 9 9 -3 13 -10 10
-15 -3 -5 12 -9 33 -9 28 0 34 -3 23 -10 -8 -5 -26 -7 -40 -4 -20 4 -22 3 -10
-5 8 -6 30 -11 48 -11 18 0 31 -4 28 -9 -3 -5 5 -11 18 -13 19 -4 23 -1 18 11
-5 13 -3 14 9 4 8 -6 30 -13 49 -15 19 -1 41 -9 48 -15 19 -18 49 -16 60 3 6
10 12 13 16 6 4 -7 14 -6 32 1 18 9 24 18 21 35 -3 17 0 22 17 21 11 0 15 -3
9 -6 -7 -2 -13 -17 -12 -31 0 -24 1 -25 8 -7 5 11 14 20 22 20 8 1 13 6 11 13
-1 7 4 12 12 12 8 0 17 4 20 9 3 4 -6 6 -19 3 -16 -3 -25 0 -25 8 0 7 6 10 14
7 24 -9 26 5 4 23 -21 17 -21 17 13 14 19 -2 26 -1 16 2 -9 3 -15 10 -11 15 3
5 10 7 15 4 5 -4 9 -1 9 4 0 6 -7 11 -15 11 -22 0 -19 9 13 37 l27 25 -25 -8
c-14 -4 -41 -6 -60 -6 -19 1 -37 -3 -41 -9 -4 -8 -13 -8 -29 1 -12 7 -20 8
-17 3 3 -5 -16 -9 -44 -9 -29 -1 -49 4 -49 10 0 6 -5 4 -10 -4 -6 -9 -13 -11
-17 -5 -12 15 -34 17 -49 4 -10 -8 -14 -9 -14 0 0 7 -10 10 -25 7 -13 -3 -28
0 -31 6 -4 6 -10 5 -15 -3 -7 -12 -9 -12 -9 0 0 7 -6 11 -14 8 -8 -3 -17 -3
-20 1 -4 3 -13 7 -21 8 -8 1 -29 9 -46 18 -18 9 -37 15 -43 15 -6 -1 -3 -3 7
-6z"/>
<path d="M3356 890 c5 -114 32 -346 59 -510 8 -47 16 -96 18 -110 3 -21 10
-25 45 -28 l42 -3 -24 68 c-62 174 -116 422 -136 618 -8 71 -8 67 -4 -35z"/>
</g>
</svg>
